<svg xmlns="http://www.w3.org/2000/svg" width="175.75" height="55.482"><g fill="#58595B"><path d="M173.774 34.451c-1.082 0-1.976.873-1.976 1.955 0 1.1.894 1.973 1.976 1.973s1.976-.873 1.976-1.973c0-1.082-.894-1.955-1.976-1.955zm.001 3.701c-.969 0-1.746-.78-1.746-1.729 0-.967.777-1.746 1.746-1.746s1.746.78 1.746 1.729c0 .967-.777 1.746-1.746 1.746zM174.419 36.367c.207-.17.283-.266.283-.549-.037-.494-.359-.551-.701-.551h-.969v2.165h.286v-.932h.722c.438 0 .321.398.36.666l.037.267h.342c-.112-.191-.075-.229-.094-.515-.038-.379-.059-.418-.266-.551zm-.397-.113h-.703v-.739h.703c.17 0 .437.036.397.418-.039.284-.209.321-.397.321zM150.464 34.223h-21.562v21.051h21.562c31.966 0 31.966-21.051 0-21.051zm-2.351 14.672h-2.26v-8.123h2.26c12.262 0 12.262 8.123 0 8.123zM77.748 33.73c-9.188 0-16.666 4.877-16.666 10.875 0 5.98 7.479 10.877 16.666 10.877 9.148 0 16.647-4.896 16.647-10.877 0-5.998-7.499-10.875-16.647-10.875zm0 15.033c-3.133 0-5.695-1.882-5.695-4.158 0-2.297 2.562-4.156 5.695-4.156 3.132 0 5.676 1.86 5.676 4.156 0 2.277-2.544 4.158-5.676 4.158zM15.621 44.529c3.321-1.119 2.98-4.953 2.98-4.953 0-5.58-8.409-5.354-8.409-5.354h-10.192v21.051h11.104c4.802 0 8.655-1.822 8.655-5.732l-4.138-5.012zm-7.933-5.257h1.993c2.126 0 2.126 3.188 0 3.188h-1.993v-3.188zm2.278 11.047h-2.278v-3.473h2.278c2.98 0 2.98 3.473 0 3.473zM159.027 30.806c2.715 0 5.617-1.634 9.377-4.537.445-.347.873-.703 1.285-1.064l3.688 4.976h2.068s-2.045-2.729-4.562-6.08c2.402-2.338 3.938-4.512 3.938-4.512l-1.198-.684c-1.32 1.462-2.57 2.737-3.756 3.843-2.812-3.746-5.935-7.893-7.392-9.81 2.985-2.12 5.604-4.274 5.604-6.979 0-2.866-2.201-5.657-5.22-5.657-3 0-5.694 2.47-5.694 5.562 0 3.074 3.047 6.557 3.047 6.557-.65.413-1.371.877-2.172 1.416-3.306 2.201-6.701 4.594-6.701 9.661s4.953 7.308 7.688 7.308zm-.076-24.62c0-1.348.682-4.023 3.7-4.023 3 0 3.588 2.904 3.588 3.796 0 .911-.229 1.823-1.596 3.266-.812.858-1.808 1.533-3.162 2.395-1.765-2.438-2.53-4.214-2.53-5.434zm-2.507 10.973c1.324-1.006 2.106-1.487 4.793-3.353l7.433 10.023c-4.242 3.692-7.537 5.098-9.91 5.1-3.225 0-5.694-2.811-5.694-5.923-.001-3.113 1.975-4.746 3.378-5.847zM85.929 30.18l3.891-9.719h12.699l3.93 9.719h1.879l-12.186-30.18-12.13 30.18h1.917zm10.213-25.549l5.693 14.142v.001h-11.35l5.657-14.143zM42.766.987h-6.625v29.193h6.188c19.532 0 19.114-29.193.437-29.193zm-4.67 1.822h4.404c16.722 0 16.476 25.491 0 25.491h-4.404v-25.491zM85.303 22.018c0-6.131-5.79-7.308-5.79-7.308 3.645-1.975 3.228-6.625 3.228-6.625-.305-7.1-7.441-7.1-7.441-7.1h-6.644v29.195h7.345c4.386 0 9.302-1.975 9.302-8.162zm-15.015-19.247h4.897c7.706 0 7.725 11.482 0 11.482h-4.897v-11.482zm.038 13.364h6.51c9.15 0 8.902 12.224-.246 12.224h-6.264v-12.224zM116.205 42.139s.284 1.897.664 2.809c.381.893-.189 1.045-.74.455l-10.041-11.18h-11.333v21.051h11.086v-7.479s-.189-1.918-.551-2.809c-.379-.912.188-1.064.739-.457l10.138 10.744h11.16v-21.05h-11.123v7.916z"/><polygon points="55.274,34.225 52.142,40.186 48.858,34.225 21.088,34.225 21.088,55.274 38.304,55.274 38.304,49.561 30.199,49.561 30.199,47.415 37.298,47.415 37.298,42.007 30.199,42.007 30.199,39.937 37.925,39.937 37.925,35.041 47.112,46.012 47.112,55.276 57.039,55.276 57.039,46.317 66.834,34.225"/><polygon points="122.923,15.11 140.728,15.11 140.728,30.18 142.417,30.18 142.417,0.986 140.728,0.986 140.728,13.287 122.923,13.287 122.923,0.986 121.234,0.986 121.234,30.18 122.923,30.18"/><polygon points="110.13,30.18 111.819,30.18 111.819,2.639 119.393,2.639 119.393,0.986 102.576,0.986 102.576,2.638 110.13,2.638"/><polygon points="33.104,28.377 20.975,28.377 20.975,15.109 32.762,15.109 32.762,13.42 20.975,13.42 20.975,2.809 33.104,2.809 33.104,0.986 19.19,0.986 19.19,30.18 33.104,30.18"/><path d="M16.932 22.018c0-6.131-5.827-7.308-5.827-7.308 3.663-1.975 3.227-6.625 3.227-6.625-.285-7.1-7.422-7.1-7.422-7.1h-6.663v29.195h7.346c4.385 0 9.339-1.975 9.339-8.162zm-15.053-19.247h4.897c7.707 0 7.726 11.482 0 11.482h-4.897v-11.482zm.057 13.364h6.492c9.168 0 8.921 12.224-.247 12.224h-6.245v-12.224z"/></g></svg>