<svg xmlns="http://www.w3.org/2000/svg" width="11.417" height="7.858"><path fill="#58595B" d="M11.41 3.929l.006-.25h-.024v-.005h-.548c-.378-.008-.755-.027-1.126-.071-.553-.065-1.099-.17-1.621-.31-.525-.142-1.033-.32-1.509-.531-.478-.21-.931-.457-1.348-.734-.421-.28-.805-.592-1.141-.926-.345-.343-.643-.713-.89-1.102l-.422.268c.266.42.589.82.959 1.188.359.357.769.689 1.216.988.441.293.92.555 1.424.776.397.176.82.324 1.252.454h-5.402c-.117-.507-.551-.893-1.093-.893-.631 0-1.143.512-1.143 1.143s.512 1.143 1.143 1.143c.542 0 .976-.386 1.093-.893h5.434c-.441.132-.874.283-1.283.464-.502.221-.981.482-1.425.777-.447.298-.857.63-1.216.987-.371.369-.693.769-.959 1.189l.423.268c.246-.389.544-.76.889-1.102.336-.334.72-.646 1.141-.926.419-.279.873-.526 1.349-.736.479-.211.986-.39 1.509-.53.522-.14 1.068-.245 1.621-.31.45-.053.906-.073 1.361-.073l.013.001.162-.002.15-.001v-.001h.013l-.008-.25z"/></svg>