<svg xmlns="http://www.w3.org/2000/svg" xmlns:xlink="http://www.w3.org/1999/xlink" width="51.54" height="7.859"><defs><rect id="a" x="-709.019" y="-477.098" width="1224" height="792"/></defs><clipPath id="b"><use xlink:href="#a" overflow="visible"/></clipPath><g clip-path="url(#b)"><defs><rect id="c" x="-709.019" y="-477.098" width="1224" height="792"/></defs><clipPath><use xlink:href="#c" overflow="visible"/></clipPath></g><g clip-path="url(#b)"><defs><rect id="d" x="-709.019" y="-477.098" width="1224" height="792"/></defs><clipPath><use xlink:href="#d" overflow="visible"/></clipPath></g><g clip-path="url(#b)"><defs><rect id="e" x="-709.019" y="-477.098" width="1224" height="792"/></defs><clipPath><use xlink:href="#e" overflow="visible"/></clipPath></g><g clip-path="url(#b)"><defs><rect id="f" x="-709.019" y="-477.098" width="1224" height="792"/></defs><clipPath><use xlink:href="#f" overflow="visible"/></clipPath></g><g clip-path="url(#b)"><defs><rect id="g" x="-709.019" y="-477.098" width="1224" height="792"/></defs><clipPath><use xlink:href="#g" overflow="visible"/></clipPath></g><g clip-path="url(#b)"><defs><rect id="h" x="-709.019" y="-477.098" width="1224" height="792"/></defs><clipPath><use xlink:href="#h" overflow="visible"/></clipPath></g><g clip-path="url(#b)"><defs><rect id="i" x="-709.019" y="-477.098" width="1224" height="792"/></defs><clipPath><use xlink:href="#i" overflow="visible"/></clipPath></g><g clip-path="url(#b)"><defs><rect id="j" x="-709.019" y="-477.098" width="1224" height="792"/></defs><clipPath><use xlink:href="#j" overflow="visible"/></clipPath></g><g clip-path="url(#b)"><defs><rect id="k" x="-709.019" y="-477.098" width="1224" height="792"/></defs><clipPath><use xlink:href="#k" overflow="visible"/></clipPath></g><g clip-path="url(#b)"><defs><rect id="l" x="-709.019" y="-477.098" width="1224" height="792"/></defs><clipPath><use xlink:href="#l" overflow="visible"/></clipPath></g><g clip-path="url(#b)"><defs><rect id="m" x="-709.019" y="-477.098" width="1224" height="792"/></defs><clipPath><use xlink:href="#m" overflow="visible"/></clipPath></g><g clip-path="url(#b)"><defs><rect id="n" x="-709.019" y="-477.098" width="1224" height="792"/></defs><clipPath><use xlink:href="#n" overflow="visible"/></clipPath></g><g clip-path="url(#b)"><defs><rect id="o" x="-709.019" y="-477.098" width="1224" height="792"/></defs><clipPath><use xlink:href="#o" overflow="visible"/></clipPath></g><g clip-path="url(#b)"><defs><rect id="p" x="-709.019" y="-477.098" width="1224" height="792"/></defs><clipPath><use xlink:href="#p" overflow="visible"/></clipPath></g><g clip-path="url(#b)"><defs><rect id="q" x="-709.019" y="-477.098" width="1224" height="792"/></defs><clipPath><use xlink:href="#q" overflow="visible"/></clipPath></g><g clip-path="url(#b)"><defs><rect id="r" x="-709.019" y="-477.098" width="1224" height="792"/></defs><clipPath><use xlink:href="#r" overflow="visible"/></clipPath></g><g clip-path="url(#b)"><defs><rect id="s" x="-709.019" y="-477.098" width="1224" height="792"/></defs><clipPath><use xlink:href="#s" overflow="visible"/></clipPath></g><g clip-path="url(#b)"><defs><rect id="t" x="-709.019" y="-477.098" width="1224" height="792"/></defs><clipPath><use xlink:href="#t" overflow="visible"/></clipPath></g><g clip-path="url(#b)"><defs><rect id="u" x="-709.019" y="-477.098" width="1224" height="792"/></defs><clipPath><use xlink:href="#u" overflow="visible"/></clipPath></g><g clip-path="url(#b)"><defs><rect id="v" x="-709.019" y="-477.098" width="1224" height="792"/></defs><clipPath><use xlink:href="#v" overflow="visible"/></clipPath></g><g clip-path="url(#b)"><defs><rect id="w" x="-709.019" y="-477.098" width="1224" height="792"/></defs><clipPath><use xlink:href="#w" overflow="visible"/></clipPath></g><g clip-path="url(#b)"><defs><rect id="x" x="-709.019" y="-477.098" width="1224" height="792"/></defs><clipPath><use xlink:href="#x" overflow="visible"/></clipPath></g><g clip-path="url(#b)"><defs><rect id="y" x="-709.019" y="-477.098" width="1224" height="792"/></defs><clipPath><use xlink:href="#y" overflow="visible"/></clipPath></g><g clip-path="url(#b)"><defs><rect id="z" x="-709.019" y="-477.098" width="1224" height="792"/></defs><clipPath><use xlink:href="#z" overflow="visible"/></clipPath></g><g clip-path="url(#b)"><defs><rect id="A" x="-709.019" y="-477.098" width="1224" height="792"/></defs><clipPath><use xlink:href="#A" overflow="visible"/></clipPath></g><g clip-path="url(#b)"><defs><rect id="B" x="-709.019" y="-477.098" width="1224" height="792"/></defs><clipPath><use xlink:href="#B" overflow="visible"/></clipPath></g><g clip-path="url(#b)"><defs><rect id="C" x="-709.019" y="-477.098" width="1224" height="792"/></defs><clipPath><use xlink:href="#C" overflow="visible"/></clipPath></g><g clip-path="url(#b)"><defs><rect id="D" x="-709.019" y="-477.098" width="1224" height="792"/></defs><clipPath><use xlink:href="#D" overflow="visible"/></clipPath></g><g clip-path="url(#b)"><defs><rect id="E" x="-709.019" y="-477.098" width="1224" height="792"/></defs><clipPath><use xlink:href="#E" overflow="visible"/></clipPath></g><g clip-path="url(#b)"><defs><rect id="F" x="-709.019" y="-477.098" width="1224" height="792"/></defs><clipPath><use xlink:href="#F" overflow="visible"/></clipPath></g><g clip-path="url(#b)"><defs><rect id="G" x="-709.019" y="-477.098" width="1224" height="792"/></defs><clipPath><use xlink:href="#G" overflow="visible"/></clipPath></g><g clip-path="url(#b)"><defs><rect id="H" x="-709.019" y="-477.098" width="1224" height="792"/></defs><clipPath><use xlink:href="#H" overflow="visible"/></clipPath></g><line stroke="#58595B" stroke-width=".5" stroke-miterlimit="10" x1=".023" y1="3.925" x2="49.79" y2="3.925" fill="none"/><path fill="#58595B" d="M11.417 3.925c0-.632-.513-1.144-1.144-1.144s-1.143.512-1.143 1.144c0 .631.513 1.144 1.144 1.144s1.143-.513 1.143-1.144"/><path stroke="#58595B" stroke-width=".5" stroke-miterlimit="10" d="M.007 3.93c.578.015 1.154-.012 1.721-.078s1.121-.172 1.656-.317c.537-.145 1.055-.326 1.545-.543.492-.217.957-.47 1.387-.756s.826-.605 1.179-.957.664-.734.925-1.145" fill="none"/><path stroke="#58595B" stroke-width=".5" stroke-miterlimit="10" d="M.007 3.93c.578-.015 1.154.012 1.721.078s1.121.172 1.656.316c.537.145 1.054.326 1.545.543.492.217.957.471 1.387.756s.826.606 1.178.957.664.734.925 1.145" fill="none"/><path fill="#58595B" d="M49.255 3.925c0-.632.512-1.144 1.143-1.144s1.143.512 1.143 1.144c0 .631-.512 1.144-1.143 1.144s-1.143-.513-1.143-1.144"/></svg>