<svg xmlns="http://www.w3.org/2000/svg" width="175.748" height="55.482"><path fill-rule="evenodd" clip-rule="evenodd" d="M92.008-31.035l-1.723-2.152c-1.398 1.4-4.52 2.799-6.78 2.799-3.875 0-7.211-2.799-7.211-6.457 0-4.52 4.305-6.996 5.596-7.426-.861-1.076-2.367-2.906-2.367-5.166.107-3.013 1.937-5.381 5.919-5.381 3.444 0 6.027 2.26 6.027 5.596 0 3.767-2.906 5.058-3.767 5.812l2.798 3.981c.753-.969 1.507-3.336 1.399-3.766h3.767s-.538 4.735-2.691 6.995l3.982 5.166h-4.949v-.001zm-6.458-20.233c-1.184 0-2.152.969-2.044 1.938.107 1.292 1.184 2.152 1.83 3.013.861-.646 2.368-1.506 2.368-2.906-.001-1.076-.863-2.045-2.154-2.045zm-1.399 10.01c-3.659 2.475-3.444 4.197-3.444 4.197 0 1.721 1.614 2.689 2.798 2.797 1.399 0 3.444-1.184 4.413-2.045l-3.767-4.949zm-64.359-3.445h4.413c-.753-6.242-6.135-10.762-12.054-10.762-6.996 0-12.484 5.381-12.484 12.592 0 7.641 6.888 12.162 12.377 12.162 4.843 0 10.977-3.338 11.946-9.688h-4.52c-.538 2.045-3.014 5.166-7.318 5.166-4.52 0-7.856-3.336-7.964-7.641-.107-4.412 3.336-8.072 7.964-8.072 3.659.001 6.78 2.8 7.64 6.243zm36.592 13.777h3.659v-3.338c-.431-.107-3.336.646-3.336-1.721v-9.364h2.906v-3.121h-2.906v-5.381h-4.52v5.166h-2.26v3.336h2.26v10.44c0 1.399.646 3.983 4.197 3.983zm-26.905-7.965c-.215-5.274 2.906-6.243 5.166-5.597v-4.197s-.969-.107-1.938 0c-1.399.431-2.69 1.399-3.336 2.26v-1.722h-4.305v17.111h4.413v-7.855zm33.901.323c0 2.26 2.152 3.982 4.413 3.982 1.614 0 2.583-.646 3.444-1.938h4.628c-.646 3.014-3.767 5.812-7.856 5.812-5.274 0-9.041-3.982-9.041-9.578 0-4.306 3.229-8.718 8.502-8.611 6.026.108 8.717 5.274 8.609 10.332h-12.699v.001zm3.982-6.78c-1.937-.108-3.767 1.399-3.767 3.551h7.533c0-2.152-1.721-3.551-3.766-3.551zm-21.31 14.313c0 .109-.107-.645-.323-1.398-.753.646-2.475 1.938-5.166 1.938-3.013 0-6.457-1.83-6.457-5.381 0-2.152 1.399-4.951 6.242-5.598 2.798-.43 4.951-.215 5.058-1.721.107-.538-.43-2.368-3.229-2.368-1.291 0-2.906.43-3.229 2.475h-3.875c0-3.013 1.83-5.596 7.534-5.596 3.552 0 7.103 1.507 7.103 5.381v9.471c.108.969.431 2.26.753 2.797h-4.411zm-7.964-4.949c.108 1.828 2.475 2.152 2.906 1.936 0 0 2.368 0 3.444-1.184.646-.859.969-1.936.646-4.305-4.305.969-6.996 1.4-6.996 3.553zm133.022-18.081v23.03h4.305v-23.03h-4.305zm-22.709 15.282c-.215-5.273 2.799-6.242 5.274-5.596v-4.197s-.969-.215-2.045 0c-1.399.323-2.583 1.399-3.337 2.26v-1.722h-4.305v17.003h4.412c.001 0 .001-7.533.001-7.748zm-10.654 0c-.215-5.273 2.906-6.242 5.166-5.596v-4.197s-.969-.215-1.938 0c-1.398.323-2.583 1.399-3.336 2.26v-1.722h-4.412v17.003h4.52v-7.748zm19.91.322c0 2.152 2.152 3.875 4.413 3.875 1.506 0 2.583-.537 3.443-1.938h4.521c-.538 3.014-3.659 5.812-7.749 5.812-5.166 0-9.04-3.982-9.04-9.471 0-4.306 3.229-8.718 8.502-8.61 5.919 0 8.718 5.273 8.502 10.331h-12.592v.001zm4.09-6.887c-2.045 0-3.874 1.399-3.874 3.551h7.533c0-2.044-1.614-3.551-3.659-3.551zm-52.52 14.313h-12.054v-23.138h10.439c3.552 0 7.211 1.614 7.211 5.919 0 3.551-2.798 4.305-3.443 4.843 2.044.646 4.305 2.583 4.305 6.351 0 4.089-3.983 6.025-6.458 6.025zm-2.583-19.479h-5.165v5.704h4.95c1.076 0 3.659-.43 3.659-3.121 0-1.83-1.829-2.583-3.444-2.583zm0 9.149h-5.165v6.779h5.488c.754 0 3.659-.646 3.659-3.121 0-1.398-.322-3.658-3.982-3.658zm21.632 10.33c0 .109-.215-.645-.323-1.398-.753.646-2.476 1.938-5.165 1.938-3.014 0-6.458-1.83-6.458-5.381 0-2.152 1.399-4.844 6.35-5.598 2.583-.43 4.843-.215 4.951-1.721.107-.43-.431-2.26-3.229-2.26-1.292 0-2.799.323-3.122 2.476h-3.981c0-3.013 2.045-5.596 7.533-5.596 3.444 0 6.996 1.506 7.104 5.381v8.825c0 .754.323 2.691.646 3.336h-4.306v-.002zm-7.425-4.949c0 1.828 2.475 2.152 2.905 1.936 0 0 2.368 0 3.337-1.184.646-.859.86-1.828.646-4.305-4.198 1.076-6.888 1.4-6.888 3.553z"/><path fill-rule="evenodd" clip-rule="evenodd" d="M58.251-90.672v0m6.614-.662v0m29.754-4.105h3.703v1.457h-3.438c-.185 0-.265.083-.265-.132h-.132l.132-1.325m74.323-3.046c-.365 1.01-1.456 2.785-1.456 3.84.418 0 2.777.083 2.777-.132h.132c-.234-1.255-.689-2.736-1.453-3.708m-109.368-.133c-.351.977-1.455 2.976-1.455 3.973.422 0 2.777.083 2.777-.132h.132c-.247-1.324-.764-2.752-1.454-3.841m81.861-2.781v.133c-2.918 1.345-2.505 10.893 1.31 10.512 3.438-.349 2.822-8.77.624-10.314-.521-.364-1.248-.331-1.934-.331m-25.657 0v.133c-2.922 1.349-2.505 10.893 1.312 10.512 3.437-.349 2.82-8.766.622-10.314-.521-.364-1.243-.331-1.934-.331m-63.08-.397 96.274-.265c1.05 0 3.926-.207 4.67.165.318.158 2.34 5.955 2.34 6.589h.133v-.132h.132c.148-.94 1.574-5.922 2.091-6.369.554-.484 3.195-.252 4.125-.252.182 0 .265-.071.265.132h.132l-.132.662c-.271.07-1.191.083-1.191.397-.359.807-.211 8.89.17 9.564.182.322.914.368 1.284.368 0 .207.092.662-.131.662v.132h-4.894c-.186 0-.397.088-.397-.132h-.132v-.662l1.323-.132c.265-2.852.132-6.022.132-9.006h-.132v.132l-.719 1.962c-.584 1.747-1.101 3.535-1.649 5.322-.224.795-.446 1.59-.674 2.384-.4.013-.591-.071-.789-.397l-.855-2.358-1.588-4.768c-.243-.716-.486-1.428-.735-2.144h-.133v5.43c0 .832-.095 1.734.108 2.479.116.436.368.745.744 1.005.164.116.761.377.598.691-.259.493-3.202.314-3.962.327-.179 0-.133.042-.133-.133h-.132v-.396c.483-.314 1.096-.555 1.348-1.113.352-.791.234-1.891.234-2.86l.006-5.959h-.133c0 .182.087.397-.132.397l.132-.927c-.252-.033-1.323-.066-1.323-.265h-.132l.131-.795m-25.259 0c.963 0 3.093-.224 3.814.161.3.157 5.575 7.122 5.575 7.122h.132c0-.178-.046-.132.134-.132 0-1.511.235-3.952-.109-5.264-.243-.919-1.61-1.134-1.61-1.754h.132v-.132h3.967c.175 0 .134-.045.134.132h.131c-.293.943-1.235.89-1.495 2.007-.287 1.191-.091 2.789-.091 4.085 0 1.953-.133 3.794-.133 5.693-.496-.033-.908-.049-1.265-.339-.623-.513-6.404-8.161-6.404-8.401h-.265v4.9c0 .699-.076 1.515.185 2.09.256.566.699.762 1.216 1.046.17.093.647.704.317.704v.133c-1.317-.216-2.798-.133-4.23-.133-.18 0-.134.043-.134-.132h-.133v-.529c.522-.19 1.089-.451 1.356-.981.537-1.08.327-3.691.371-5.111.03-.976.304-2.188.013-3.148-.242-.804-1.74-1.316-1.74-1.486-.083-.125-.243-.265 0-.265l.132-.266m-76.173 0h5.422c-.024.231.017.794-.264.794l-1.19.132v10.065c.26 0 1.322-.112 1.322.132h.132v.794h-5.422c0-.223-.099-.794.133-.794v-.132c.264-.03.863-.009 1.003-.254.402-.706.182-2.16.182-3.058l.004-6.754h-1.323l.001-.925m-11.77 0h5.952c0 .219.095.794-.132.794v.132h-1.587c0 1.374-.232 9.315.215 9.854.31.372 1.269.344 1.769.344.579-.294 1.145-.269 1.666-.725.892-.793 1.218-2.851 2.301-2.851-.045 1.407-.133 2.752-.133 4.105 0 .174.042.133-.132.133v.132c-3.095 0-6.142-.132-9.125-.132-.227 0-.925.099-.925-.133h-.132c0-.185-.09-.396.132-.396.414-.394 1.166-.166 1.463-.729.375-.721.455-8.116.14-9.018-.277-.791-1.604-.509-1.604-1.378l.132-.132m-11.637 0h5.951c0 .219.096.794-.132.794v.132h-1.587c.004 3.087.013 6.21.016 9.266.009.251-.049.8.249.8.438.145.951.12 1.451.115 3.042-.05 2.777-3.559 4.235-3.559-.045 1.407-.132 2.752-.132 4.105 0 .174.042.133-.132.133v.132c-2.335 0-4.67 0-7.009-.003-.884 0-1.976.136-2.74-.121-.116-.041-.641-.405-.302-.405v-.265c.273-.086 1.454-.083 1.454-.397.57-1.315.265-4.792.265-6.489 0-.856.153-1.982-.107-2.727-.281-.799-1.612-.476-1.612-1.378l.132-.133m-7.009 0h5.422c-.025.231.017.794-.265.794l-1.19.132v10.065c.26 0 1.323-.112 1.323.132h.132v.794h-5.422c0-.223-.099-.794.132-.794v-.132c.272-.03.86-.009 1.004-.254.331-.583.182-1.651.182-2.395l.005-7.417h-1.323v-.925m-17.457 0h4.761c0 .207.1.662-.133.662v.133c-.223 0-.793-.1-.793.132h-.132c.111 1.771.934 3.534 1.508 5.14l.607 1.879h.132v-.132c.463-.877 1.323-3.365 1.376-4.375.024-.583-.215-1.316-.426-1.792-.177-.397-1.111-.973-1.116-1.262l.021-.137c.132-.364 3.583-.248 4.244-.248.174 0 .132-.045.132.132h.132v.529c-.335.05-.748.112-.873.468-.293.824 1.224 4.548 1.558 5.479l.372 1.072c.174 0 .133-.045.133.133h.132v-.133c.371-.891 1.855-5.256 1.431-6.216-.191-.43-.509-.629-.898-.819-.12-.062-.748-.513-.401-.513v-.132h4.1c-.228.844-1.14 1.105-1.516 1.887-.385.787-.558 1.66-.814 2.5-.48 1.618-.959 3.241-1.443 4.859l-.855 2.673c-.339-.045-.748-.074-.971-.339-.372-.439-2.202-5.914-2.202-6.547h-.265c-.418 1.288-.835 2.574-1.256 3.861-.269.866-.418 2.069-.984 2.789-.157.196-.479.241-.719.158-.508-.178-.661-1.192-.802-1.622l-2.042-6.253c-.277-.833-.446-1.825-.93-2.562-.215-.323-.686-.608-1.07-.608l.002-.796m169.67-.132c.415.024.773.028 1.059.276.487.423.625 1.23.863 1.809l2.286 5.604c.36.939.683 2.148 1.318 2.951.239.302.823.616 1.219.616-.032.235 0 .662-.265.662-1.264.376-3.451.132-4.893.132-.178 0-.132.043-.132-.132h-.133c.021-.228-.009-.662.265-.662l.562-.276c.311-.58-.025-2.087-.632-2.369-.492-.227-3.313-.268-3.707.054-.248.199-.372.559-.455.861-.438 1.539 1.323 1.734 1.323 1.862h.133c0 .19.086.529-.133.529v.132h-4.101c-.187 0-.265.083-.265-.132h-.132v-.529c.427-.232.84-.409 1.182-.8.566-.649.782-1.464 1.115-2.222l2.172-5.6c.347-.978.649-1.967 1.351-2.766m-97.332 0c.248.079.582.194.731.435.322.517.455 1.204.62 1.804l.956 3.034.603 1.614h.133c.207-.903 1.744-6.345 2.318-6.602.893-.405 3.153-.152 4.293-.152 0 .219.099.794-.131.794v.132c-.447.025-.992.025-1.17.468-.285.688-.037 1.692-.025 2.445l.005 4.503c0 .711-.104 1.589.127 2.201.199.534 1.327.319 1.327.58h.132c-.032.24 0 .662-.265.662-1.438.39-3.442.132-5.024.132-.178 0-.133.043-.133-.132h-.132v-.662h.132v-.132h1.19c.265-2.852.133-6.022.133-9.006h-.265l-2.802 9.126c-.094.223-.219.479-.508.479-.251 0-.367-.175-.462-.369-1.066-2.176-1.549-4.676-2.369-6.965-.243-.757-.487-1.514-.735-2.271h-.264c0 2.031.029 4.18.12 6.092l.099 1.962c.22.877 1.501 1.001 1.501 1.878h-4.365v-.529c.501-.182 1.095-.459 1.311-.993.29-.732.141-1.85.141-2.715 0-2.305-.128-4.531-.128-6.754-.525-.049-.979-.265-1.454-.265v-.397c1.228-.571 3.043-.008 4.36-.397m-12.034 0c.388.024.781.037 1.058.276.5.431.645 1.271.885 1.859.586 1.436 3.008 8.318 4.013 8.845.355.185.687.292.668.798-.007.174.014.141-.143.141-1.405.381-3.348.132-4.894.132-.178 0-.132.043-.132-.132h-.132c.021-.228-.008-.662.265-.662l.562-.276c.311-.58-.021-2.087-.632-2.369-.492-.227-3.315-.268-3.707.054-.29.232-.389.621-.48.964-.384 1.424 1.347 1.622 1.347 1.76h.132c0 .19.087.529-.132.529v.132h-4.1c-.186 0-.264.083-.264-.132h-.132v-.529c.413-.228.772-.377 1.12-.729.587-.612.806-1.437 1.132-2.185.724-1.863 1.451-3.725 2.174-5.591.387-1.019.652-2.041 1.392-2.885m81.728-.133c1.062 0 2.141.145 3 .6 3.832 2.02 4.559 8.004.959 10.644-.785.571-1.639 1.039-2.646 1.155-5.523.621-8.186-5.848-5.331-9.957 1.008-1.461 2.443-1.957 4.018-2.442m-25.656 0c1.191 0 2.41.19 3.315.778 3.504 2.276 4.273 7.892.644 10.466-.797.56-1.628 1.039-2.645 1.155-5.455.613-8.355-5.997-5.286-10.016 1.096-1.435 2.377-1.853 3.972-2.383m-11.77 0c.693 0 1.413.008 1.992.24.475.187 1.048.687 1.577.687.122-.153 1.19-1.216 1.19-.662h.133v3.973c0 .174.042.132-.133.132v.133l-.375-.087c-.186-.062-.295-.161-.397-.314l-.619-1.263c-.727-1.225-2.207-2.544-3.773-1.796-.558.26-1.032.711-1.115 1.349-.307 2.286 3.799 2.355 5.169 3.096.773.414 1.318 1.221 1.513 2.052.178.766.092 1.685-.148 2.385-.579 1.672-2.555 2.88-4.446 2.446-.914-.212-2.041-1.23-2.832-.618-.165.125-1.04.658-1.04.299h-.133v-4.105c0-.186-.07-.265.133-.265v-.132c1.009.166 1.049 1.068 1.529 1.804.771 1.197 2.181 2.525 3.747 2.126.745-.189 1.216-.694 1.459-1.418.145-.444.009-.944-.182-1.292-.268-.484-.794-.75-1.271-.94-1.456-.583-3.109-.542-4.267-1.7-1.982-1.987-.674-5.997 2.29-5.997l-.001-.133m-16.663 0c.699 0 1.355.025 1.946.224.514.169 1.062.703 1.625.703.12-.153 1.191-1.216 1.191-.662h.13v3.973c0 .174.043.132-.13.132v.133l-.376-.087c-.188-.062-.295-.161-.397-.314l-.621-1.263c-.727-1.225-2.205-2.544-3.771-1.796-.554.26-1.034.711-1.117 1.349-.317 2.364 3.866 2.293 5.236 3.137.619.381 1.103.981 1.347 1.66.278.778.248 1.776.009 2.561-.625 2.024-2.806 3.061-4.926 2.521-.751-.195-1.591-1.118-2.343-.571-.161.111-1.106.732-1.106.352h-.134v-4.105c0-.186-.086-.265.134-.265v-.132c.949.158 1.061.981 1.472 1.71.718 1.282 2.177 2.606 3.804 2.221.691-.164 1.175-.64 1.418-1.302.15-.419.104-.87-.062-1.255-.225-.513-.711-.807-1.191-1.022-1.48-.666-3.094-.625-4.359-1.709-2.21-1.896-.674-6.059 2.223-6.059l-.002-.134"/><path fill-rule="evenodd" clip-rule="evenodd" d="M175.749 36.406c0 1.1-.893 1.973-1.975 1.973s-1.975-.873-1.975-1.973c0-1.082.893-1.955 1.975-1.955s1.975.873 1.975 1.955zm-.228 0c0-.949-.777-1.729-1.746-1.729s-1.746.779-1.746 1.746c0 .949.777 1.729 1.746 1.729s1.746-.779 1.746-1.746zm-2.487 1.026h.285v-.932h.721c.438 0 .322.398.361.666l.037.266h.342c-.113-.191-.076-.229-.094-.514-.039-.379-.059-.418-.266-.551.207-.17.283-.266.283-.549-.037-.494-.359-.551-.701-.551h-.969v2.165h.001zm-44.131-3.209v21.051h21.562c31.965 0 31.965-21.051 0-21.051h-21.562zm-51.155 21.259c9.148 0 16.647-4.896 16.647-10.877 0-5.998-7.499-10.875-16.647-10.875-9.188 0-16.666 4.877-16.666 10.875 0 5.981 7.479 10.877 16.666 10.877zm-66.644-.209c4.802 0 8.655-1.822 8.655-5.732l-4.138-5.012c3.321-1.119 2.98-4.953 2.98-4.953 0-5.58-8.409-5.354-8.409-5.354h-10.192v21.051h11.104zm162.518-36.368c-1.32 1.462-2.57 2.737-3.756 3.843-2.812-3.746-5.934-7.893-7.391-9.81 2.986-2.12 5.604-4.274 5.604-6.979 0-2.866-2.201-5.657-5.219-5.657-3 0-5.695 2.469-5.695 5.562 0 3.074 3.047 6.557 3.047 6.557-.65.413-1.371.877-2.172 1.416-3.305 2.201-6.701 4.593-6.701 9.661 0 5.067 4.953 7.308 7.688 7.308 2.715 0 5.617-1.633 9.377-4.537.445-.346.873-.703 1.285-1.064l3.688 4.975h2.068s-2.045-2.729-4.562-6.08c2.402-2.338 3.938-4.511 3.938-4.511l-1.199-.684zm-89.61 11.275h1.917l3.891-9.718h12.699l3.93 9.718h1.879l-12.186-30.18-12.13 30.18zm-47.871-29.194v29.194h6.188c19.532 0 19.114-29.193.437-29.193h-6.625v-.001zm39.86 29.194c4.386 0 9.302-1.975 9.302-8.162 0-6.131-5.79-7.307-5.79-7.307 3.645-1.975 3.228-6.625 3.228-6.625-.305-7.1-7.441-7.1-7.441-7.1h-6.644v29.194h7.345zm-68.408 0c4.385 0 9.339-1.975 9.339-8.162 0-6.131-5.827-7.307-5.827-7.307 3.663-1.975 3.227-6.625 3.227-6.625-.285-7.1-7.422-7.1-7.422-7.1h-6.663v29.194h7.346zm166.429 5.334h-.703v.74h.703c.189 0 .359-.037.398-.322.038-.381-.228-.418-.398-.418zm-28.169 13.381h2.26c12.262 0 12.262-8.123 0-8.123h-2.26v8.123zm-51.098-14.672v21.051h11.086v-7.479s-.189-1.918-.551-2.809c-.379-.912.189-1.064.74-.457l10.137 10.744h11.16v-21.05h-11.123v7.916s.285 1.898.664 2.809c.381.893-.189 1.045-.74.455l-10.041-11.18h-11.332zm-17.007 6.226c-3.133 0-5.695 1.859-5.695 4.156 0 2.277 2.562 4.158 5.695 4.158 3.132 0 5.676-1.881 5.676-4.158 0-2.296-2.544-4.156-5.676-4.156zm-56.66-6.226v21.051h17.216v-5.713h-8.105v-2.146h7.099v-5.408h-7.099v-2.07h7.726v-4.896l9.187 10.971v9.264h9.927v-8.959l9.795-12.092h-11.56l-3.132 5.961-3.284-5.961h-27.77v-.002zm-13.4 8.238h1.993c2.126 0 2.126-3.189 0-3.189h-1.993v3.189zm0 4.385v3.473h2.278c2.98 0 2.98-3.473 0-3.473h-2.278zm160.981-23.016l-7.432-10.024c-2.686 1.866-3.469 2.347-4.793 3.353-1.404 1.102-3.379 2.734-3.379 5.848 0 3.112 2.469 5.922 5.695 5.922 2.372-.001 5.667-1.407 9.909-5.099zm-7.188-12.211c1.354-.861 2.35-1.536 3.162-2.395 1.367-1.442 1.596-2.354 1.596-3.265 0-.892-.588-3.796-3.588-3.796-3.018 0-3.701 2.676-3.701 4.023 0 1.22.766 2.996 2.531 5.433zm-38.558 1.668v-12.301h-1.689v29.194h1.689v-15.07h17.805v15.07h1.689v-29.194h-1.689v12.301h-17.805zm-20.348-12.301v1.652h7.555v27.542h1.689v-27.541h7.574v-1.653h-16.818zm-.74 17.786l-5.693-14.141-5.657 14.142h11.35v-.001zm-63.739-15.963v25.492h4.404c16.476 0 16.722-25.492 0-25.492h-4.404zm-18.906-1.823v29.194h13.914v-1.803h-12.129v-13.268h11.787v-1.689h-11.787v-10.611h12.129v-1.823h-13.914zm51.098 1.785v11.483h4.897c7.725 0 7.706-11.483 0-11.483h-4.897zm-68.409 0v11.483h4.897c7.726 0 7.707-11.483 0-11.483h-4.897zm68.447 13.364v12.223h6.264c9.148 0 9.396-12.223.246-12.223h-6.51zm-68.39 0v12.223h6.245c9.168 0 9.415-12.223.247-12.223h-6.492z"/></svg>