<svg xmlns="http://www.w3.org/2000/svg" width="55.494" height="7.858"><line stroke="#58595B" stroke-width=".5" stroke-miterlimit="10" x1="24.747" y1="3.924" y2="3.924" fill="none"/><path fill="#58595B" d="M13.354 3.924c0-.631.512-1.143 1.143-1.143s1.143.512 1.143 1.143-.512 1.143-1.143 1.143-1.143-.512-1.143-1.143"/><path fill="#58595B" d="M26.604 3.924c0-.631.512-1.143 1.143-1.143s1.143.512 1.143 1.143-.512 1.143-1.143 1.143-1.143-.512-1.143-1.143"/><path stroke="#58595B" stroke-width=".5" stroke-miterlimit="10" d="M24.764 3.929c-.579.015-1.155-.011-1.721-.077-.566-.067-1.121-.173-1.657-.317s-1.054-.326-1.545-.543c-.492-.217-.956-.47-1.386-.756-.43-.286-.826-.606-1.179-.957-.353-.351-.664-.734-.924-1.145" fill="none"/><path stroke="#58595B" stroke-width=".5" stroke-miterlimit="10" d="M24.764 3.929c-.579-.015-1.155.011-1.721.077-.566.067-1.121.173-1.657.317s-1.054.326-1.545.543c-.492.217-.956.47-1.386.756-.43.286-.826.605-1.179.957s-.664.734-.924 1.145" fill="none"/><line stroke="#58595B" stroke-width=".5" stroke-miterlimit="10" x1="30.747" y1="3.924" x2="55.494" y2="3.924" fill="none"/><path fill="#58595B" d="M42.14 3.924c0-.631-.512-1.143-1.143-1.143s-1.143.512-1.143 1.143.512 1.143 1.143 1.143 1.143-.512 1.143-1.143"/><path fill="#58595B" d="M28.89 3.924c0-.631-.512-1.143-1.143-1.143s-1.143.512-1.143 1.143.512 1.143 1.143 1.143 1.143-.512 1.143-1.143"/><path stroke="#58595B" stroke-width=".5" stroke-miterlimit="10" d="M30.729 3.929c.579.015 1.155-.011 1.721-.077.566-.067 1.121-.173 1.657-.317s1.054-.326 1.545-.543c.492-.217.956-.47 1.386-.756.43-.286.826-.606 1.179-.957.353-.351.664-.734.924-1.145" fill="none"/><path stroke="#58595B" stroke-width=".5" stroke-miterlimit="10" d="M30.729 3.929c.579-.015 1.155.011 1.721.077.566.067 1.121.173 1.657.317s1.054.326 1.545.543c.492.217.956.47 1.386.756.43.286.826.605 1.179.957s.664.734.924 1.145" fill="none"/></svg>