<svg xmlns="http://www.w3.org/2000/svg" xmlns:xlink="http://www.w3.org/1999/xlink" width="67.68" height="16.96"><defs><rect id="a" x="-724.434" y="-556.671" width="1224" height="792"/></defs><clipPath id="b"><use xlink:href="#a" overflow="visible"/></clipPath><g clip-path="url(#b)"><defs><rect id="c" x="-724.434" y="-556.671" width="1224" height="792"/></defs><clipPath><use xlink:href="#c" overflow="visible"/></clipPath></g><g clip-path="url(#b)"><defs><rect id="d" x="-724.434" y="-556.671" width="1224" height="792"/></defs><clipPath><use xlink:href="#d" overflow="visible"/></clipPath></g><g clip-path="url(#b)"><defs><rect id="e" x="-724.434" y="-556.671" width="1224" height="792"/></defs><clipPath><use xlink:href="#e" overflow="visible"/></clipPath></g><g clip-path="url(#b)"><defs><rect id="f" x="-724.434" y="-556.671" width="1224" height="792"/></defs><clipPath><use xlink:href="#f" overflow="visible"/></clipPath></g><g clip-path="url(#b)"><defs><rect id="g" x="-724.434" y="-556.671" width="1224" height="792"/></defs><clipPath><use xlink:href="#g" overflow="visible"/></clipPath></g><g clip-path="url(#b)"><defs><rect id="h" x="-724.434" y="-556.671" width="1224" height="792"/></defs><clipPath><use xlink:href="#h" overflow="visible"/></clipPath></g><g clip-path="url(#b)"><defs><rect id="i" x="-724.434" y="-556.671" width="1224" height="792"/></defs><clipPath><use xlink:href="#i" overflow="visible"/></clipPath></g><g clip-path="url(#b)"><defs><rect id="j" x="-724.434" y="-556.671" width="1224" height="792"/></defs><clipPath><use xlink:href="#j" overflow="visible"/></clipPath></g><g clip-path="url(#b)"><defs><rect id="k" x="-724.434" y="-556.671" width="1224" height="792"/></defs><clipPath><use xlink:href="#k" overflow="visible"/></clipPath></g><g clip-path="url(#b)"><defs><rect id="l" x="-724.434" y="-556.671" width="1224" height="792"/></defs><clipPath><use xlink:href="#l" overflow="visible"/></clipPath></g><g clip-path="url(#b)"><defs><rect id="m" x="-724.434" y="-556.671" width="1224" height="792"/></defs><clipPath><use xlink:href="#m" overflow="visible"/></clipPath></g><g clip-path="url(#b)"><defs><rect id="n" x="-724.434" y="-556.671" width="1224" height="792"/></defs><clipPath><use xlink:href="#n" overflow="visible"/></clipPath></g><g clip-path="url(#b)"><defs><rect id="o" x="-724.434" y="-556.671" width="1224" height="792"/></defs><clipPath><use xlink:href="#o" overflow="visible"/></clipPath></g><g clip-path="url(#b)"><defs><rect id="p" x="-724.434" y="-556.671" width="1224" height="792"/></defs><clipPath><use xlink:href="#p" overflow="visible"/></clipPath></g><g clip-path="url(#b)"><defs><rect id="q" x="-724.434" y="-556.671" width="1224" height="792"/></defs><clipPath><use xlink:href="#q" overflow="visible"/></clipPath></g><g clip-path="url(#b)"><defs><rect id="r" x="-724.434" y="-556.671" width="1224" height="792"/></defs><clipPath><use xlink:href="#r" overflow="visible"/></clipPath></g><g clip-path="url(#b)"><defs><rect id="s" x="-724.434" y="-556.671" width="1224" height="792"/></defs><clipPath><use xlink:href="#s" overflow="visible"/></clipPath></g><g clip-path="url(#b)"><defs><rect id="t" x="-724.434" y="-556.671" width="1224" height="792"/></defs><clipPath><use xlink:href="#t" overflow="visible"/></clipPath></g><g clip-path="url(#b)"><defs><rect id="u" x="-724.434" y="-556.671" width="1224" height="792"/></defs><clipPath><use xlink:href="#u" overflow="visible"/></clipPath></g><g clip-path="url(#b)"><defs><rect id="v" x="-724.434" y="-556.671" width="1224" height="792"/></defs><clipPath><use xlink:href="#v" overflow="visible"/></clipPath></g><g clip-path="url(#b)"><defs><rect id="w" x="-724.434" y="-556.671" width="1224" height="792"/></defs><clipPath><use xlink:href="#w" overflow="visible"/></clipPath></g><g clip-path="url(#b)"><defs><rect id="x" x="-724.434" y="-556.671" width="1224" height="792"/></defs><clipPath><use xlink:href="#x" overflow="visible"/></clipPath></g><g clip-path="url(#b)"><defs><rect id="y" x="-724.434" y="-556.671" width="1224" height="792"/></defs><clipPath><use xlink:href="#y" overflow="visible"/></clipPath></g><g clip-path="url(#b)"><defs><rect id="z" x="-724.434" y="-556.671" width="1224" height="792"/></defs><clipPath><use xlink:href="#z" overflow="visible"/></clipPath></g><g clip-path="url(#b)"><defs><rect id="A" x="-724.434" y="-556.671" width="1224" height="792"/></defs><clipPath><use xlink:href="#A" overflow="visible"/></clipPath></g><g clip-path="url(#b)"><defs><rect id="B" x="-724.434" y="-556.671" width="1224" height="792"/></defs><clipPath><use xlink:href="#B" overflow="visible"/></clipPath></g><g clip-path="url(#b)"><defs><rect id="C" x="-724.434" y="-556.671" width="1224" height="792"/></defs><clipPath><use xlink:href="#C" overflow="visible"/></clipPath></g><g clip-path="url(#b)"><defs><rect id="D" x="-724.434" y="-556.671" width="1224" height="792"/></defs><clipPath><use xlink:href="#D" overflow="visible"/></clipPath></g><g clip-path="url(#b)"><defs><rect id="E" x="-724.434" y="-556.671" width="1224" height="792"/></defs><clipPath><use xlink:href="#E" overflow="visible"/></clipPath></g><g clip-path="url(#b)"><defs><rect id="F" x="-724.434" y="-556.671" width="1224" height="792"/></defs><clipPath><use xlink:href="#F" overflow="visible"/></clipPath></g><g clip-path="url(#b)"><defs><rect id="G" x="-724.434" y="-556.671" width="1224" height="792"/></defs><clipPath><use xlink:href="#G" overflow="visible"/></clipPath></g><g clip-path="url(#b)"><defs><rect id="H" x="-724.434" y="-556.671" width="1224" height="792"/></defs><clipPath><use xlink:href="#H" overflow="visible"/></clipPath></g><rect x="32.098" y="12.421" transform="matrix(-.707 -.707 .707 -.707 47.753 48.084)" stroke="#58595B" stroke-width=".5" stroke-miterlimit="10" width="3.469" height="3.468" fill="none"/><line stroke="#58595B" stroke-width=".5" stroke-miterlimit="10" x1="24.973" y1="13.319" y2="13.319" fill="none"/><path stroke="#58595B" stroke-width=".5" stroke-miterlimit="10" d="M24.693 13.283c.5 0 .987-.052 1.459-.147.471-.097.926-.239 1.358-.422s.845-.407 1.229-.668c.385-.26.744-.556 1.072-.884.327-.327.624-.687.885-1.071.26-.385.483-.797.668-1.229.183-.434.324-.889.42-1.359.098-.472.147-.96.147-1.459 0-.4-.04-.791-.117-1.168s-.19-.741-.338-1.087c-.146-.348-.325-.676-.534-.984-.207-.308-.445-.595-.707-.856-.262-.263-.549-.499-.856-.708-.308-.208-.638-.388-.984-.534s-.71-.26-1.088-.337c-.377-.077-.767-.118-1.167-.118-.32 0-.632.033-.934.094-.301.062-.592.153-.87.271-.277.117-.54.261-.787.428-.246.166-.476.355-.687.564-.209.21-.398.44-.564.687-.167.247-.311.51-.428.787s-.209.568-.271.87-.094.613-.094.934c0 .256.026.506.075.747.05.242.123.474.217.696.093.222.208.433.341.63.134.197.285.381.453.548.168.168.351.32.549.453" fill="none"/><path stroke="#58595B" stroke-width=".5" stroke-miterlimit="10" d="M15.086 13.329c.231 0 .457-.023.674-.068.219-.045.429-.11.629-.195.201-.085.391-.188.568-.309.178-.12.344-.257.495-.408.151-.152.289-.316.409-.495.12-.178.224-.369.308-.568.085-.2.151-.41.195-.628.045-.219.067-.443.067-.675 0-.185-.018-.365-.053-.54-.037-.174-.089-.342-.156-.502-.068-.161-.151-.312-.248-.455-.096-.143-.205-.274-.326-.396s-.254-.231-.396-.327c-.142-.096-.295-.179-.455-.247-.16-.067-.328-.12-.502-.156-.174-.035-.354-.054-.539-.054-.148 0-.293.015-.432.043-.141.029-.273.071-.402.125-.128.054-.25.12-.363.197-.114.077-.221.165-.317.262s-.185.203-.263.317c-.076.113-.143.234-.196.363s-.097.263-.125.402c-.028.139-.043.283-.043.431 0 .119.012.234.034.347l.1.32.158.291.209.255.254.209.291.157.322.101c.111.022.227.035.345.035l.276-.028.257-.08.233-.127.203-.167.168-.203.125-.232.08-.258.028-.275-.022-.222-.064-.206-.102-.186-.134-.162-.161-.134" fill="none"/><path fill="#58595B" d="M16.936 9.644c0-.631-.512-1.144-1.144-1.144-.631 0-1.143.513-1.143 1.144s.512 1.143 1.143 1.143c.632-.001 1.144-.513 1.144-1.143"/><path fill="#58595B" d="M21.417 13.323c6.291.029 6.171-6.913 6-6.918 0 0-3.995 6.823-9.088 6.823"/><line stroke="#58595B" stroke-width=".5" stroke-miterlimit="10" x1="42.707" y1="13.319" x2="67.68" y2="13.319" fill="none"/><path stroke="#58595B" stroke-width=".5" stroke-miterlimit="10" d="M42.987 13.283c-.5 0-.987-.052-1.459-.147-.472-.097-.926-.239-1.358-.422-.434-.183-.846-.407-1.23-.668-.385-.26-.744-.556-1.072-.884-.326-.327-.623-.687-.884-1.071-.26-.385-.483-.797-.668-1.229-.183-.434-.325-.889-.421-1.359-.098-.472-.146-.96-.146-1.459 0-.4.039-.791.116-1.168s.191-.741.339-1.087c.146-.348.325-.676.533-.984.208-.308.445-.595.707-.856.262-.263.549-.499.857-.708.308-.208.638-.388.984-.534.346-.146.709-.26 1.088-.337.377-.079.767-.12 1.166-.12.32 0 .633.033.935.094.301.062.592.153.87.271.277.117.539.261.787.428.246.166.476.355.686.564.209.21.398.44.564.687.168.247.311.51.429.787.116.277.208.568.271.87.061.302.094.613.094.934 0 .256-.026.506-.076.747-.049.242-.122.474-.217.696-.092.222-.207.433-.34.63-.135.197-.285.381-.453.548-.168.168-.352.32-.549.453" fill="none"/><path stroke="#58595B" stroke-width=".5" stroke-miterlimit="10" d="M52.594 13.329c-.23 0-.457-.023-.674-.068-.219-.045-.428-.11-.629-.195-.2-.085-.391-.188-.568-.309-.178-.12-.344-.257-.494-.408-.152-.152-.289-.316-.41-.495-.119-.178-.224-.369-.308-.568-.085-.2-.151-.41-.194-.628-.045-.219-.068-.443-.068-.675 0-.185.018-.365.054-.54.036-.174.088-.342.156-.502.067-.161.151-.312.247-.455s.205-.274.326-.396.254-.231.396-.327.295-.179.455-.247c.16-.067.328-.12.502-.156.174-.035.355-.054.54-.054.147 0 .292.015.431.043.141.029.274.071.402.125s.25.12.364.197.22.165.317.262c.096.097.185.203.262.317.076.113.143.234.197.363.053.129.096.263.125.402.027.139.043.283.043.431 0 .119-.013.234-.035.347-.022.11-.057.219-.1.32l-.158.291-.209.255-.254.209-.291.157-.322.101c-.11.022-.227.035-.344.035l-.277-.028-.256-.08-.233-.127-.203-.167-.168-.203-.126-.232-.08-.258-.027-.275.022-.222.063-.206.102-.186.134-.162.162-.134" fill="none"/><path fill="#58595B" d="M50.745 9.644c0-.631.512-1.144 1.144-1.144.631 0 1.143.513 1.143 1.144s-.512 1.143-1.143 1.143c-.632-.001-1.144-.513-1.144-1.143"/><path fill="#58595B" d="M46.263 13.323c-6.291.029-6.171-6.913-6-6.918 0 0 3.995 6.823 9.088 6.823"/><line stroke="#58595B" stroke-width=".5" stroke-miterlimit="10" x1="42.693" y1="13.319" x2="67.666" y2="13.319" fill="none"/></svg>