<svg xmlns="http://www.w3.org/2000/svg" width="176.417" height="12.462" viewBox="-0.335 -102.326 176.417 12.462" enable-background="new -0.335 -102.326 176.417 12.462"><path fill="#58595B" d="M58.251-90.672v0m6.614-.662v0m29.754-4.105h3.702v1.457h-3.438c-.184 0-.264.083-.264-.133h-.133c.047-.443.092-.881.133-1.324m74.323-3.046c-.364 1.01-1.457 2.784-1.457 3.84.418 0 2.777.083 2.777-.132h.133c-.233-1.255-.688-2.736-1.453-3.708m-109.368-.133c-.351.978-1.455 2.977-1.455 3.974.422 0 2.777.083 2.777-.132h.132c-.247-1.325-.764-2.753-1.454-3.842m81.861-2.781v.133c-2.918 1.345-2.504 10.893 1.311 10.512 3.438-.349 2.822-8.77.625-10.313-.522-.365-1.25-.332-1.936-.332m-25.657 0v.133c-2.922 1.349-2.506 10.893 1.312 10.512 3.438-.349 2.82-8.766.623-10.313-.523-.365-1.243-.332-1.935-.332m-63.08-.397 96.274-.265c1.051 0 3.926-.207 4.67.165.318.158 2.34 5.955 2.34 6.589h.135v-.132h.131c.148-.94 1.574-5.922 2.092-6.369.555-.484 3.195-.252 4.125-.252.184 0 .266-.071.266.132h.133l-.133.662c-.271.07-1.189.083-1.189.396-.357.808-.211 8.891.17 9.564.184.322.914.368 1.285.368 0 .207.092.662-.133.662v.132h-4.896c-.186 0-.396.088-.396-.132h-.133v-.662l1.323-.132c.265-2.853.132-6.022.132-9.007h-.132v.133l-.719 1.962c-.584 1.747-1.103 3.535-1.649 5.321-.224.795-.444 1.591-.675 2.385-.399.013-.59-.071-.788-.397l-.854-2.358-1.589-4.768c-.241-.716-.485-1.428-.733-2.144h-.133v5.43c0 .832-.097 1.734.106 2.479.116.437.369.745.744 1.006.163.115.762.377.598.69-.258.493-3.2.314-3.961.327-.18 0-.133.042-.133-.133h-.134v-.396c.484-.313 1.097-.555 1.349-1.112.353-.791.233-1.892.233-2.86l.007-5.959h-.134c0 .182.088.396-.131.396l.131-.927c-.252-.033-1.321-.065-1.321-.265h-.134l.13-.794m-25.26 0c.963 0 3.094-.225 3.812.161.303.156 5.576 7.122 5.576 7.122h.131c0-.179-.045-.133.137-.133 0-1.511.232-3.951-.109-5.264-.242-.919-1.609-1.134-1.609-1.754h.133v-.132h3.967c.174 0 .133-.045.133.132h.133c-.293.943-1.234.89-1.494 2.007-.287 1.191-.092 2.789-.092 4.085 0 1.953-.135 3.794-.135 5.693-.496-.033-.906-.049-1.266-.339-.621-.514-6.402-8.161-6.402-8.401h-.266v4.9c0 .698-.076 1.515.186 2.09.257.565.699.762 1.217 1.046.17.093.646.704.316.704v.133c-1.316-.216-2.799-.133-4.229-.133-.182 0-.137.043-.137-.132h-.133v-.529c.521-.19 1.09-.451 1.355-.981.537-1.08.328-3.69.371-5.11.029-.977.305-2.188.014-3.148-.242-.804-1.74-1.315-1.74-1.486-.082-.125-.242-.265 0-.265l.131-.266m-76.172 0h5.422c-.024.23.017.794-.264.794l-1.19.132v10.065c.26 0 1.322-.112 1.322.132h.132v.794h-5.422c0-.224-.099-.794.133-.794v-.132c.264-.03.863-.01 1.003-.255.402-.705.182-2.159.182-3.058l.004-6.754h-1.323l.001-.924m-11.77 0h5.952c0 .219.095.794-.132.794v.132h-1.587c0 1.374-.232 9.315.215 9.854.31.372 1.269.345 1.769.345.579-.294 1.145-.27 1.666-.726.892-.793 1.218-2.851 2.301-2.851-.045 1.407-.133 2.752-.133 4.104 0 .175.042.134-.132.134v.132c-3.095 0-6.142-.132-9.125-.132-.227 0-.925.099-.925-.134h-.132c0-.185-.09-.396.132-.396.414-.395 1.166-.166 1.463-.729.375-.721.455-8.115.14-9.018-.277-.791-1.604-.509-1.604-1.378l.132-.131m-11.637 0h5.951c0 .219.096.794-.132.794v.132h-1.587c.004 3.087.013 6.21.016 9.266.009.251-.049.801.249.801.438.145.951.119 1.451.114 3.042-.05 2.777-3.559 4.235-3.559-.045 1.407-.132 2.752-.132 4.104 0 .175.042.134-.132.134v.132c-2.335 0-4.67 0-7.009-.003-.884 0-1.976.136-2.74-.121-.116-.041-.641-.405-.302-.405v-.265c.273-.086 1.454-.083 1.454-.397.57-1.314.265-4.792.265-6.489 0-.854.153-1.981-.107-2.727-.281-.799-1.612-.476-1.612-1.378l.132-.133m-7.009 0h5.422c-.025.23.017.794-.265.794l-1.19.132v10.065c.26 0 1.323-.112 1.323.132h.132v.794h-5.422c0-.224-.099-.794.132-.794v-.132c.272-.03.86-.01 1.004-.255.331-.583.182-1.65.182-2.395l.005-7.417h-1.323v-.924m-17.457 0h4.761c0 .207.1.662-.133.662v.133c-.223 0-.793-.101-.793.132h-.132c.111 1.771.934 3.534 1.508 5.14l.607 1.879h.132v-.132c.463-.877 1.323-3.364 1.376-4.375.024-.583-.215-1.315-.426-1.792-.177-.396-1.111-.973-1.116-1.262l.021-.137c.132-.364 3.583-.248 4.244-.248.174 0 .132-.045.132.132h.132v.529c-.335.05-.748.111-.873.468-.293.824 1.224 4.548 1.558 5.479l.372 1.072c.174 0 .133-.045.133.133h.132v-.133c.371-.891 1.855-5.256 1.431-6.216-.191-.43-.509-.629-.898-.819-.12-.062-.748-.513-.401-.513v-.132h4.1c-.228.844-1.14 1.104-1.516 1.887-.385.787-.558 1.66-.814 2.5-.48 1.618-.959 3.241-1.443 4.859l-.855 2.673c-.339-.045-.748-.074-.971-.339-.372-.439-2.202-5.914-2.202-6.547h-.265c-.418 1.287-.835 2.573-1.256 3.86-.269.866-.418 2.069-.984 2.789-.157.196-.479.241-.719.158-.508-.178-.661-1.192-.802-1.622l-2.042-6.253c-.277-.833-.446-1.825-.93-2.562-.215-.322-.686-.607-1.07-.607l.002-.796m169.67-.132c.414.023.771.027 1.059.275.486.423.625 1.23.863 1.81l2.285 5.604c.359.939.684 2.148 1.316 2.951.24.302.824.616 1.221.616-.031.234 0 .662-.266.662-1.264.376-3.449.132-4.895.132-.178 0-.133.043-.133-.132h-.133c.021-.229-.01-.662.266-.662l.562-.276c.312-.58-.023-2.087-.631-2.369-.492-.227-3.312-.268-3.707.055-.248.198-.373.559-.455.86-.438 1.539 1.322 1.734 1.322 1.862h.133c0 .189.086.529-.133.529v.132h-4.102c-.188 0-.266.083-.266-.132h-.133v-.529c.428-.232.84-.409 1.184-.8.564-.649.781-1.464 1.113-2.223.725-1.866 1.449-3.732 2.172-5.6.354-.978.655-1.966 1.358-2.765m-97.332 0c.248.078.582.193.731.435.322.517.455 1.204.62 1.804l.956 3.034.603 1.614h.133c.207-.903 1.744-6.345 2.318-6.603.893-.404 3.153-.151 4.293-.151 0 .219.099.794-.131.794v.132c-.447.025-.992.025-1.17.468-.285.688-.037 1.692-.025 2.445l.005 4.503c0 .711-.104 1.589.127 2.201.199.534 1.327.318 1.327.58h.132c-.032.239 0 .662-.265.662-1.438.39-3.442.132-5.024.132-.178 0-.133.043-.133-.132h-.132v-.662h.132v-.132h1.19c.265-2.853.133-6.022.133-9.007h-.265l-2.802 9.126c-.094.224-.219.479-.508.479-.251 0-.367-.175-.462-.369-1.066-2.176-1.549-4.676-2.369-6.965-.243-.757-.487-1.514-.735-2.271h-.264c0 2.031.029 4.181.12 6.093l.099 1.962c.22.877 1.501 1.001 1.501 1.878h-4.365v-.529c.501-.182 1.095-.459 1.311-.993.29-.731.141-1.85.141-2.715 0-2.305-.128-4.531-.128-6.754-.525-.049-.979-.265-1.454-.265v-.397c1.228-.571 3.043-.008 4.36-.397m-12.034 0c.388.023.781.036 1.058.275.5.432.645 1.271.885 1.859.586 1.436 3.008 8.317 4.013 8.845.355.186.687.292.668.798-.007.174.014.142-.143.142-1.405.381-3.348.132-4.894.132-.178 0-.132.043-.132-.132h-.132c.021-.229-.008-.662.265-.662l.562-.276c.311-.58-.021-2.087-.632-2.369-.492-.227-3.315-.268-3.707.055-.29.231-.389.62-.48.964-.384 1.424 1.347 1.622 1.347 1.76h.132c0 .188.087.529-.132.529v.132h-4.1c-.186 0-.264.083-.264-.132h-.132v-.529c.413-.229.772-.377 1.12-.729.587-.611.806-1.437 1.132-2.185.724-1.863 1.451-3.725 2.174-5.591.387-1.02.652-2.042 1.392-2.886m81.728-.133c1.062 0 2.141.146 3 .601 3.832 2.02 4.559 8.004.959 10.644-.785.571-1.64 1.039-2.646 1.155-5.522.621-8.187-5.848-5.332-9.957 1.008-1.462 2.445-1.958 4.019-2.443m-25.657 0c1.189 0 2.41.19 3.314.778 3.504 2.276 4.271 7.892.645 10.466-.797.561-1.627 1.039-2.646 1.155-5.455.613-8.354-5.997-5.285-10.016 1.097-1.435 2.379-1.853 3.972-2.383m-11.77 0c.692 0 1.414.009 1.992.24.476.188 1.049.688 1.577.688.121-.153 1.188-1.217 1.188-.662h.134v3.973c0 .174.043.132-.134.132v.133l-.375-.087c-.186-.062-.295-.16-.396-.313l-.618-1.263c-.728-1.226-2.207-2.545-3.772-1.797-.56.261-1.033.711-1.115 1.35-.308 2.286 3.8 2.354 5.168 3.096.772.414 1.318 1.221 1.515 2.052.178.767.092 1.686-.146 2.386-.58 1.672-2.558 2.88-4.447 2.445-.913-.212-2.041-1.229-2.832-.618-.164.125-1.039.658-1.039.3h-.133v-4.105c0-.186-.069-.265.133-.265v-.132c1.009.166 1.05 1.067 1.529 1.804.771 1.197 2.181 2.524 3.746 2.126.746-.189 1.217-.694 1.459-1.418.146-.444.01-.944-.183-1.292-.271-.484-.795-.75-1.271-.94-1.455-.583-3.108-.542-4.269-1.699-1.979-1.987-.674-5.997 2.291-5.997l-.002-.137m-16.662 0c.699 0 1.354.025 1.946.225.514.169 1.062.703 1.625.703.119-.153 1.191-1.217 1.191-.662h.129v3.973c0 .174.043.132-.129.132v.133l-.377-.087c-.188-.062-.295-.16-.396-.313l-.621-1.263c-.727-1.226-2.205-2.545-3.771-1.797-.554.261-1.034.711-1.117 1.35-.317 2.364 3.867 2.293 5.236 3.137.618.381 1.104.981 1.348 1.66.277.778.248 1.776.011 2.561-.625 2.024-2.808 3.062-4.927 2.521-.751-.195-1.591-1.118-2.343-.571-.161.111-1.106.732-1.106.353h-.134v-4.105c0-.186-.086-.265.134-.265v-.132c.949.157 1.061.98 1.472 1.71.718 1.281 2.177 2.605 3.806 2.221.689-.164 1.174-.64 1.418-1.302.148-.419.104-.87-.062-1.255-.225-.514-.711-.808-1.189-1.022-1.479-.666-3.094-.625-4.358-1.709-2.21-1.896-.674-6.059 2.223-6.059l-.009-.137"/></svg>