<?xml version="1.0" encoding="utf-8"?>
<!-- Generator: Adobe Illustrator 14.0.0, SVG Export Plug-In . SVG Version: 6.00 Build 43363)  -->
<!DOCTYPE svg PUBLIC "-//W3C//DTD SVG 1.1//EN" "http://www.w3.org/Graphics/SVG/1.1/DTD/svg11.dtd">
<svg version="1.1" id="Layer_1" xmlns="http://www.w3.org/2000/svg" xmlns:xlink="http://www.w3.org/1999/xlink" x="0px" y="0px"
	 width="175.749px" height="55.482px" viewBox="0 0 175.749 55.482" enable-background="new 0 0 175.749 55.482"
	 xml:space="preserve">
<path fill-rule="evenodd" clip-rule="evenodd" d="M175.749,36.406c0,1.1-0.893,1.973-1.975,1.973s-1.975-0.873-1.975-1.973
	c0-1.082,0.893-1.955,1.975-1.955S175.749,35.324,175.749,36.406L175.749,36.406z M175.521,36.406c0-0.949-0.777-1.729-1.746-1.729
	s-1.746,0.779-1.746,1.746c0,0.949,0.777,1.729,1.746,1.729S175.521,37.373,175.521,36.406L175.521,36.406z M173.034,37.432h0.285
	V36.5h0.721c0.438,0,0.322,0.398,0.361,0.666l0.037,0.266h0.342c-0.113-0.191-0.076-0.229-0.094-0.514
	c-0.039-0.379-0.059-0.418-0.266-0.551c0.207-0.17,0.283-0.266,0.283-0.549c-0.037-0.494-0.359-0.551-0.701-0.551h-0.969V37.432
	L173.034,37.432z M128.903,34.223v21.051h21.562c31.965,0,31.965-21.051,0-21.051H128.903L128.903,34.223z M77.748,55.482
	c9.148,0,16.647-4.896,16.647-10.877c0-5.998-7.499-10.875-16.647-10.875c-9.188,0-16.666,4.877-16.666,10.875
	C61.082,50.586,68.561,55.482,77.748,55.482L77.748,55.482z M11.104,55.273c4.802,0,8.655-1.822,8.655-5.732
	s-4.138-5.012-4.138-5.012c3.321-1.119,2.98-4.953,2.98-4.953c0-5.58-8.409-5.354-8.409-5.354H0v21.051H11.104L11.104,55.273z
	 M173.622,18.905c-1.32,1.462-2.57,2.737-3.756,3.843c-2.812-3.746-5.934-7.893-7.391-9.81c2.986-2.12,5.604-4.274,5.604-6.979
	c0-2.866-2.201-5.657-5.219-5.657c-3,0-5.695,2.469-5.695,5.562c0,3.074,3.047,6.557,3.047,6.557
	c-0.65,0.413-1.371,0.877-2.172,1.416c-3.305,2.201-6.701,4.593-6.701,9.661c0,5.067,4.953,7.308,7.688,7.308
	c2.715,0,5.617-1.633,9.377-4.537c0.445-0.346,0.873-0.703,1.285-1.064l3.688,4.975h2.068c0,0-2.045-2.729-4.562-6.08
	c2.402-2.338,3.938-4.511,3.938-4.511L173.622,18.905L173.622,18.905z M84.012,30.18h1.917l3.891-9.718h12.699l3.93,9.718h1.879
	L96.142,0L84.012,30.18L84.012,30.18z M36.141,0.986V30.18h6.188c19.532,0,19.114-29.193,0.437-29.193H36.141L36.141,0.986z
	 M76.001,30.18c4.386,0,9.302-1.975,9.302-8.162c0-6.131-5.79-7.307-5.79-7.307c3.645-1.975,3.228-6.625,3.228-6.625
	c-0.305-7.1-7.441-7.1-7.441-7.1h-6.644V30.18H76.001L76.001,30.18z M7.593,30.18c4.385,0,9.339-1.975,9.339-8.162
	c0-6.131-5.827-7.307-5.827-7.307c3.663-1.975,3.227-6.625,3.227-6.625c-0.285-7.1-7.422-7.1-7.422-7.1H0.247V30.18H7.593
	L7.593,30.18z M174.022,35.514h-0.703v0.74h0.703c0.189,0,0.359-0.037,0.398-0.322C174.458,35.551,174.192,35.514,174.022,35.514
	L174.022,35.514z M145.853,48.895h2.26c12.262,0,12.262-8.123,0-8.123h-2.26V48.895L145.853,48.895z M94.755,34.223v21.051h11.086
	v-7.479c0,0-0.189-1.918-0.551-2.809c-0.379-0.912,0.189-1.064,0.74-0.457l10.137,10.744h11.16V34.223h-11.123v7.916
	c0,0,0.285,1.898,0.664,2.809c0.381,0.893-0.189,1.045-0.74,0.455l-10.041-11.18H94.755L94.755,34.223z M77.748,40.449
	c-3.133,0-5.695,1.859-5.695,4.156c0,2.277,2.562,4.158,5.695,4.158c3.132,0,5.676-1.881,5.676-4.158
	C83.424,42.309,80.88,40.449,77.748,40.449L77.748,40.449z M21.088,34.223v21.051h17.216v-5.713h-8.105v-2.146h7.099v-5.408h-7.099
	v-2.07h7.726v-4.896l9.187,10.971v9.264h9.927v-8.959l9.795-12.092h-11.56l-3.132,5.961l-3.284-5.961H21.088L21.088,34.223z
	 M7.688,42.461h1.993c2.126,0,2.126-3.189,0-3.189H7.688V42.461L7.688,42.461z M7.688,46.846v3.473h2.278c2.98,0,2.98-3.473,0-3.473
	H7.688L7.688,46.846z M168.669,23.83l-7.432-10.024c-2.686,1.866-3.469,2.347-4.793,3.353c-1.404,1.102-3.379,2.734-3.379,5.848
	c0,3.112,2.469,5.922,5.695,5.922C161.132,28.928,164.427,27.522,168.669,23.83L168.669,23.83z M161.481,11.619
	c1.354-0.861,2.35-1.536,3.162-2.395c1.367-1.442,1.596-2.354,1.596-3.265c0-0.892-0.588-3.796-3.588-3.796
	c-3.018,0-3.701,2.676-3.701,4.023C158.95,7.406,159.716,9.182,161.481,11.619L161.481,11.619z M122.923,13.287V0.986h-1.689V30.18
	h1.689v-15.07h17.805v15.07h1.689V0.986h-1.689v12.301H122.923L122.923,13.287z M102.575,0.986v1.652h7.555V30.18h1.689V2.639h7.574
	V0.986H102.575L102.575,0.986z M101.835,18.772L96.142,4.631l-5.657,14.142H101.835L101.835,18.772z M38.096,2.809v25.492H42.5
	c16.476,0,16.722-25.492,0-25.492H38.096L38.096,2.809z M19.19,0.986V30.18h13.914v-1.803H20.975V15.109h11.787V13.42H20.975V2.809
	h12.129V0.986H19.19L19.19,0.986z M70.288,2.771v11.483h4.897c7.725,0,7.706-11.483,0-11.483H70.288L70.288,2.771z M1.879,2.771
	v11.483h4.897c7.726,0,7.707-11.483,0-11.483H1.879L1.879,2.771z M70.326,16.135v12.223h6.264c9.148,0,9.396-12.223,0.246-12.223
	H70.326L70.326,16.135z M1.936,16.135v12.223h6.245c9.168,0,9.415-12.223,0.247-12.223H1.936L1.936,16.135z"/>
</svg>
