<?xml version="1.0" encoding="utf-8"?>
<!-- Generator: Adobe Illustrator 16.0.5, SVG Export Plug-In . SVG Version: 6.00 Build 0)  -->
<!DOCTYPE svg PUBLIC "-//W3C//DTD SVG 1.1//EN" "http://www.w3.org/Graphics/SVG/1.1/DTD/svg11.dtd">
<svg version="1.1" id="Layer_1" xmlns="http://www.w3.org/2000/svg" xmlns:xlink="http://www.w3.org/1999/xlink" x="0px" y="0px"
	 width="175.75px" height="55.482px" viewBox="0 0 175.75 55.482" enable-background="new 0 0 175.75 55.482" xml:space="preserve">
<g>
	<path fill="#58595B" d="M173.774,34.451c-1.082,0-1.976,0.873-1.976,1.955c0,1.1,0.894,1.973,1.976,1.973s1.976-0.873,1.976-1.973
		C175.75,35.324,174.856,34.451,173.774,34.451z M173.775,38.152c-0.969,0-1.746-0.78-1.746-1.729c0-0.967,0.777-1.746,1.746-1.746
		s1.746,0.78,1.746,1.729C175.521,37.373,174.744,38.152,173.775,38.152z"/>
	<path fill="#58595B" d="M174.419,36.367c0.207-0.17,0.283-0.266,0.283-0.549c-0.037-0.494-0.359-0.551-0.701-0.551h-0.969v2.165
		h0.002h0.284V36.5h0.722c0.438,0,0.321,0.398,0.36,0.666l0.037,0.267h0.342c-0.112-0.191-0.075-0.229-0.094-0.515
		C174.647,36.539,174.626,36.5,174.419,36.367z M174.022,36.254h-0.703v-0.739h0.703c0.17,0,0.437,0.036,0.397,0.418
		C174.38,36.217,174.21,36.254,174.022,36.254z"/>
	<path fill="#58595B" d="M150.464,34.223h-21.562v21.051h21.562C182.43,55.274,182.43,34.223,150.464,34.223z M148.113,48.895h-2.26
		v-8.123h2.26C160.375,40.772,160.375,48.895,148.113,48.895z"/>
	<path fill="#58595B" d="M77.748,33.73c-9.188,0-16.666,4.877-16.666,10.875c0,5.98,7.479,10.877,16.666,10.877
		c9.148,0,16.647-4.896,16.647-10.877C94.395,38.607,86.896,33.73,77.748,33.73z M77.748,48.763c-3.133,0-5.695-1.882-5.695-4.158
		c0-2.297,2.562-4.156,5.695-4.156c3.132,0,5.676,1.86,5.676,4.156C83.424,46.882,80.88,48.763,77.748,48.763z"/>
	<path fill="#58595B" d="M15.621,44.529c3.321-1.119,2.98-4.953,2.98-4.953c0-5.58-8.409-5.354-8.409-5.354H0v21.051h11.104
		c4.802,0,8.655-1.822,8.655-5.732S15.621,44.529,15.621,44.529z M7.688,39.272h1.993c2.126,0,2.126,3.188,0,3.188H7.688V39.272z
		 M9.966,50.319H7.688v-3.473h2.278C12.946,46.846,12.946,50.319,9.966,50.319z"/>
	<path fill="#58595B" d="M159.027,30.806c2.715,0,5.617-1.634,9.377-4.537c0.445-0.347,0.873-0.703,1.285-1.064l3.688,4.976h2.068
		c0,0-2.045-2.729-4.562-6.08c2.402-2.338,3.938-4.512,3.938-4.512l-1.198-0.684c-1.32,1.462-2.57,2.737-3.756,3.843
		c-2.812-3.746-5.935-7.893-7.392-9.81c2.985-2.12,5.604-4.274,5.604-6.979c0-2.866-2.201-5.657-5.22-5.657
		c-3,0-5.694,2.47-5.694,5.562c0,3.074,3.047,6.557,3.047,6.557c-0.65,0.413-1.371,0.877-2.172,1.416
		c-3.306,2.201-6.701,4.594-6.701,9.661S156.292,30.806,159.027,30.806z M158.951,6.186c0-1.348,0.682-4.023,3.7-4.023
		c3,0,3.588,2.904,3.588,3.796c0,0.911-0.229,1.823-1.596,3.266c-0.812,0.858-1.808,1.533-3.162,2.395
		C159.716,9.182,158.951,7.406,158.951,6.186z M156.444,17.159c1.324-1.006,2.106-1.487,4.793-3.353l7.433,10.023
		c-4.242,3.692-7.537,5.098-9.91,5.1c-3.225,0-5.694-2.811-5.694-5.923C153.065,19.893,155.041,18.26,156.444,17.159z"/>
	<path fill="#58595B" d="M85.929,30.18l3.891-9.719h12.699l3.93,9.719h1.879L96.142,0L84.012,30.18H85.929z M96.142,4.631
		l5.693,14.142v0.001H90.485L96.142,4.631z"/>
	<path fill="#58595B" d="M42.766,0.987h-6.625V30.18h6.188C61.861,30.18,61.443,0.987,42.766,0.987z M38.096,2.809H42.5
		c16.722,0,16.476,25.491,0,25.491h-4.404V2.809z"/>
	<path fill="#58595B" d="M85.303,22.018c0-6.131-5.79-7.308-5.79-7.308c3.645-1.975,3.228-6.625,3.228-6.625
		c-0.305-7.1-7.441-7.1-7.441-7.1h-6.644V30.18h7.345C80.387,30.18,85.303,28.205,85.303,22.018z M70.288,2.771h4.897
		c7.706,0,7.725,11.482,0,11.482h-4.897V2.771z M70.326,16.135h6.51c9.15,0,8.902,12.224-0.246,12.224h-6.264V16.135z"/>
	<path fill="#58595B" d="M116.205,42.139c0,0,0.284,1.897,0.664,2.809c0.381,0.893-0.189,1.045-0.74,0.455l-10.041-11.18H94.755
		v21.051h11.086v-7.479c0,0-0.189-1.918-0.551-2.809c-0.379-0.912,0.188-1.064,0.739-0.457l10.138,10.744h11.16v-21.05h-11.123
		V42.139z"/>
	<polygon fill="#58595B" points="55.274,34.225 52.142,40.186 48.858,34.225 21.088,34.225 21.088,55.274 38.304,55.274 
		38.304,49.561 30.199,49.561 30.199,47.415 37.298,47.415 37.298,42.007 30.199,42.007 30.199,39.937 37.925,39.937 37.925,35.041 
		47.112,46.012 47.112,55.276 57.039,55.276 57.039,46.317 66.834,34.225 	"/>
	<polygon fill="#58595B" points="122.923,15.11 140.728,15.11 140.728,30.18 142.417,30.18 142.417,0.986 140.728,0.986 
		140.728,13.287 122.923,13.287 122.923,0.986 121.234,0.986 121.234,30.18 122.923,30.18 	"/>
	<polygon fill="#58595B" points="110.13,30.18 111.819,30.18 111.819,2.639 119.393,2.639 119.393,0.986 102.576,0.986 
		102.576,2.638 110.13,2.638 	"/>
	<polygon fill="#58595B" points="33.104,28.377 20.975,28.377 20.975,15.109 32.762,15.109 32.762,13.42 20.975,13.42 20.975,2.809 
		33.104,2.809 33.104,0.986 19.19,0.986 19.19,30.18 33.104,30.18 	"/>
	<path fill="#58595B" d="M16.932,22.018c0-6.131-5.827-7.308-5.827-7.308c3.663-1.975,3.227-6.625,3.227-6.625
		c-0.285-7.1-7.422-7.1-7.422-7.1H0.247V30.18h7.346C11.978,30.18,16.932,28.205,16.932,22.018z M1.879,2.771h4.897
		c7.707,0,7.726,11.482,0,11.482H1.879V2.771z M1.936,16.135h6.492c9.168,0,8.921,12.224-0.247,12.224H1.936V16.135z"/>
</g>
</svg>
