<?xml version="1.0" encoding="utf-8"?>
<!-- Generator: Adobe Illustrator 16.0.5, SVG Export Plug-In . SVG Version: 6.00 Build 0)  -->
<!DOCTYPE svg PUBLIC "-//W3C//DTD SVG 1.1//EN" "http://www.w3.org/Graphics/SVG/1.1/DTD/svg11.dtd">
<svg version="1.1" id="Layer_1" xmlns="http://www.w3.org/2000/svg" xmlns:xlink="http://www.w3.org/1999/xlink" x="0px" y="0px"
	 width="11.417px" height="7.858px" viewBox="0 0 11.417 7.858" enable-background="new 0 0 11.417 7.858" xml:space="preserve">
<path fill="#58595B" d="M11.41,3.929l0.006-0.25c-0.004,0-0.008,0-0.013,0V3.679c-0.004,0-0.007,0-0.011,0V3.674h-0.548
	c-0.378-0.008-0.755-0.027-1.126-0.071c-0.553-0.065-1.099-0.17-1.621-0.31c-0.525-0.142-1.033-0.32-1.509-0.531
	C6.11,2.552,5.657,2.305,5.24,2.028c-0.421-0.28-0.805-0.592-1.141-0.926C3.754,0.759,3.456,0.389,3.209,0L2.787,0.268
	c0.266,0.42,0.589,0.82,0.959,1.188c0.359,0.357,0.769,0.689,1.216,0.988c0.441,0.293,0.92,0.555,1.424,0.776
	c0.397,0.176,0.82,0.324,1.252,0.454H2.236C2.119,3.167,1.685,2.781,1.143,2.781C0.512,2.781,0,3.293,0,3.924
	c0,0.631,0.512,1.143,1.143,1.143c0.542,0,0.976-0.386,1.093-0.893H7.67C7.229,4.306,6.796,4.457,6.387,4.638
	C5.885,4.859,5.406,5.12,4.962,5.415C4.515,5.713,4.105,6.045,3.746,6.402C3.375,6.771,3.053,7.171,2.787,7.591l0.423,0.268
	C3.456,7.47,3.754,7.099,4.099,6.757c0.336-0.334,0.72-0.646,1.141-0.926c0.419-0.279,0.873-0.526,1.349-0.736
	c0.479-0.211,0.986-0.39,1.509-0.53c0.522-0.14,1.068-0.245,1.621-0.31c0.45-0.053,0.906-0.073,1.361-0.073
	c0.004,0,0.009,0.001,0.013,0.001c0.054,0,0.108-0.001,0.162-0.002c0.05,0.001,0.1-0.002,0.15-0.001V4.179c0.004,0,0.008,0,0.013,0
	L11.41,3.929z"/>
</svg>
