<svg version="1.1" id="Layer_1" xmlns="http://www.w3.org/2000/svg" xmlns:xlink="http://www.w3.org/1999/xlink" x="0px" y="0px"
	 width="175.748px" height="25.076px" viewBox="0 0 175.748 25.076" enable-background="new 0 0 175.748 25.076"
	 xml:space="preserve">
<path fill-rule="evenodd" clip-rule="evenodd" d="M92.341,24.43l-1.723-2.152c-1.398,1.4-4.52,2.799-6.78,2.799
	c-3.875,0-7.211-2.799-7.211-6.457c0-4.52,4.305-6.996,5.596-7.426c-0.861-1.076-2.367-2.906-2.367-5.166
	c0.107-3.013,1.937-5.381,5.919-5.381c3.444,0,6.027,2.26,6.027,5.596c0,3.767-2.906,5.058-3.767,5.812l2.798,3.981
	c0.753-0.969,1.507-3.336,1.399-3.766H96c0,0-0.538,4.735-2.691,6.995l3.982,5.166H92.341L92.341,24.43z M85.883,4.197
	c-1.184,0-2.152,0.969-2.044,1.938c0.107,1.292,1.184,2.152,1.83,3.013c0.861-0.646,2.368-1.506,2.368-2.906
	C88.036,5.166,87.174,4.197,85.883,4.197L85.883,4.197z M84.484,14.207c-3.659,2.475-3.444,4.197-3.444,4.197
	c0,1.721,1.614,2.689,2.798,2.797c1.399,0,3.444-1.184,4.413-2.045L84.484,14.207L84.484,14.207z M20.125,10.762h4.413
	C23.785,4.52,18.403,0,12.484,0C5.489,0,0,5.381,0,12.592c0,7.641,6.888,12.162,12.377,12.162c4.843,0,10.977-3.338,11.946-9.688
	h-4.52c-0.538,2.045-3.014,5.166-7.318,5.166c-4.52,0-7.856-3.336-7.964-7.641C4.413,8.18,7.856,4.52,12.484,4.52
	C16.144,4.52,19.265,7.318,20.125,10.762L20.125,10.762z M56.717,24.539h3.659v-3.338c-0.431-0.107-3.336,0.646-3.336-1.721v-9.364
	h2.906V6.996H57.04V1.614h-4.52V6.78h-2.26v3.336h2.26v10.44C52.52,21.955,53.166,24.539,56.717,24.539L56.717,24.539z
	 M29.812,16.574c-0.215-5.274,2.906-6.243,5.166-5.597V6.78c0,0-0.969-0.107-1.938,0c-1.399,0.431-2.69,1.399-3.336,2.26V7.318
	h-4.305V24.43h4.413C29.812,24.43,29.812,16.789,29.812,16.574L29.812,16.574z M63.713,16.896c0,2.26,2.152,3.982,4.413,3.982
	c1.614,0,2.583-0.646,3.444-1.938h4.628c-0.646,3.014-3.767,5.812-7.856,5.812c-5.274,0-9.041-3.982-9.041-9.578
	c0-4.306,3.229-8.718,8.502-8.611c6.026,0.108,8.717,5.274,8.609,10.332H63.713L63.713,16.896z M67.695,10.117
	c-1.937-0.108-3.767,1.399-3.767,3.551h7.533C71.461,11.516,69.74,10.117,67.695,10.117L67.695,10.117z M46.385,24.43
	c0,0.109-0.107-0.645-0.323-1.398c-0.753,0.646-2.475,1.938-5.166,1.938c-3.013,0-6.457-1.83-6.457-5.381
	c0-2.152,1.399-4.951,6.242-5.598c2.798-0.43,4.951-0.215,5.058-1.721c0.107-0.538-0.43-2.368-3.229-2.368
	c-1.291,0-2.906,0.43-3.229,2.475h-3.875c0-3.013,1.83-5.596,7.534-5.596c3.552,0,7.103,1.507,7.103,5.381c0,0,0,9.147,0,9.471
	c0.108,0.969,0.431,2.26,0.753,2.797H46.385L46.385,24.43z M38.421,19.48c0.108,1.828,2.475,2.152,2.906,1.936
	c0,0,2.368,0,3.444-1.184c0.646-0.859,0.969-1.936,0.646-4.305C41.112,16.896,38.421,17.328,38.421,19.48L38.421,19.48z
	 M171.443,1.399v23.03h4.305V1.399H171.443L171.443,1.399z M148.734,16.682c-0.215-5.273,2.799-6.242,5.274-5.596V6.888
	c0,0-0.969-0.215-2.045,0c-1.399,0.323-2.583,1.399-3.337,2.26V7.426h-4.305V24.43h4.412
	C148.734,24.43,148.734,16.896,148.734,16.682L148.734,16.682z M138.08,16.682c-0.215-5.273,2.906-6.242,5.166-5.596V6.888
	c0,0-0.969-0.215-1.938,0c-1.398,0.323-2.583,1.399-3.336,2.26V7.426h-4.412V24.43h4.52C138.08,24.43,138.08,16.896,138.08,16.682
	L138.08,16.682z M157.99,17.004c0,2.152,2.152,3.875,4.413,3.875c1.506,0,2.583-0.537,3.443-1.938h4.521
	c-0.538,3.014-3.659,5.812-7.749,5.812c-5.166,0-9.04-3.982-9.04-9.471c0-4.306,3.229-8.718,8.502-8.61
	c5.919,0,8.718,5.273,8.502,10.331H157.99L157.99,17.004z M162.08,10.117c-2.045,0-3.874,1.399-3.874,3.551h7.533
	C165.739,11.624,164.125,10.117,162.08,10.117L162.08,10.117z M109.56,24.43c-4.843,0-12.054,0-12.054,0V1.292h10.439
	c3.552,0,7.211,1.614,7.211,5.919c0,3.551-2.798,4.305-3.443,4.843c2.044,0.646,4.305,2.583,4.305,6.351
	C116.018,22.494,112.035,24.43,109.56,24.43L109.56,24.43z M106.977,4.951h-5.165v5.704h4.95c1.076,0,3.659-0.43,3.659-3.121
	C110.421,5.704,108.592,4.951,106.977,4.951L106.977,4.951z M106.977,14.1h-5.165v6.779h5.488c0.754,0,3.659-0.646,3.659-3.121
	C110.959,16.359,110.637,14.1,106.977,14.1L106.977,14.1z M128.609,24.43c0,0.109-0.215-0.645-0.323-1.398
	c-0.753,0.646-2.476,1.938-5.165,1.938c-3.014,0-6.458-1.83-6.458-5.381c0-2.152,1.399-4.844,6.35-5.598
	c2.583-0.43,4.843-0.215,4.951-1.721c0.107-0.43-0.431-2.26-3.229-2.26c-1.292,0-2.799,0.323-3.122,2.476h-3.981
	c0-3.013,2.045-5.596,7.533-5.596c3.444,0,6.996,1.506,7.104,5.381c0,3.229,0,8.825,0,8.825c0,0.754,0.323,2.691,0.646,3.336
	H128.609L128.609,24.43z M121.184,19.48c0,1.828,2.475,2.152,2.905,1.936c0,0,2.368,0,3.337-1.184
	c0.646-0.859,0.86-1.828,0.646-4.305C123.874,17.004,121.184,17.328,121.184,19.48L121.184,19.48z"/>
<path fill-rule="evenodd" clip-rule="evenodd" d="M58.584-35.207c0,0.046,0,0.091,0,0.133C58.584-35.12,58.584-35.161,58.584-35.207
	 M65.198-35.869c0,0.046,0,0.091,0,0.132C65.198-35.782,65.198-35.823,65.198-35.869 M94.952-39.974c1.235,0,2.471,0,3.703,0
	c0,0.484,0,0.972,0,1.457c-1.145,0-2.29,0-3.438,0c-0.185,0-0.265,0.083-0.265-0.132c-0.046,0-0.086,0-0.132,0
	C94.866-39.093,94.91-39.531,94.952-39.974 M169.275-43.021c-0.365,1.01-1.456,2.785-1.456,3.84c0.418,0,2.777,0.083,2.777-0.132
	c0.046,0,0.092,0,0.132,0C170.494-40.567,170.039-42.048,169.275-43.021 M59.907-43.153c-0.351,0.977-1.455,2.976-1.455,3.973
	c0.422,0,2.777,0.083,2.777-0.132c0.045,0,0.092,0,0.132,0C61.114-40.636,60.597-42.064,59.907-43.153 M141.768-45.934
	c0,0.046,0,0.091,0,0.133c-2.918,1.345-2.505,10.893,1.31,10.512c3.438-0.349,2.822-8.77,0.624-10.314
	C143.181-45.967,142.454-45.934,141.768-45.934 M116.111-45.934c0,0.046,0,0.091,0,0.133c-2.922,1.349-2.505,10.893,1.312,10.512
	c3.437-0.349,2.82-8.766,0.622-10.314C117.524-45.967,116.802-45.934,116.111-45.934 M53.031-46.331L53.031-46.331 M149.305-46.596
	c1.05,0,3.926-0.207,4.67,0.165c0.318,0.158,2.34,5.955,2.34,6.589c0.044,0,0.09,0,0.133,0c0-0.045,0-0.087,0-0.132
	c0.044,0,0.09,0,0.132,0c0.148-0.94,1.574-5.922,2.091-6.369c0.554-0.484,3.195-0.252,4.125-0.252c0.182,0,0.265-0.071,0.265,0.132
	c0.044,0,0.09,0,0.132,0c-0.046,0.219-0.088,0.443-0.132,0.662c-0.271,0.07-1.191,0.083-1.191,0.397
	c-0.359,0.807-0.211,8.89,0.17,9.564c0.182,0.322,0.914,0.368,1.284,0.368c0,0.207,0.092,0.662-0.131,0.662c0,0.046,0,0.092,0,0.132
	c-1.632,0-3.26,0-4.894,0c-0.186,0-0.397,0.088-0.397-0.132c-0.046,0-0.086,0-0.132,0c0-0.219,0-0.439,0-0.662
	c0.442-0.046,0.886-0.086,1.323-0.132c0.265-2.852,0.132-6.022,0.132-9.006c-0.046,0-0.088,0-0.132,0c0,0.045,0,0.091,0,0.132
	c-0.24,0.654-0.48,1.308-0.719,1.962c-0.584,1.747-1.101,3.535-1.649,5.322c-0.224,0.795-0.446,1.59-0.674,2.384
	c-0.4,0.013-0.591-0.071-0.789-0.397c-0.285-0.787-0.571-1.572-0.855-2.358c-0.529-1.589-1.059-3.179-1.588-4.768
	c-0.243-0.716-0.486-1.428-0.735-2.144c-0.046,0-0.087,0-0.133,0c0,1.809,0,3.622,0,5.43c0,0.832-0.095,1.734,0.108,2.479
	c0.116,0.436,0.368,0.745,0.744,1.005c0.164,0.116,0.761,0.377,0.598,0.691c-0.259,0.493-3.202,0.314-3.962,0.327
	c-0.179,0-0.133,0.042-0.133-0.133c-0.046,0-0.086,0-0.132,0c0-0.132,0-0.265,0-0.396c0.483-0.314,1.096-0.555,1.348-1.113
	c0.352-0.791,0.234-1.891,0.234-2.86c0-1.986,0.006-3.973,0.006-5.959c-0.046,0-0.087,0-0.133,0c0,0.182,0.087,0.397-0.132,0.397
	c0.044-0.311,0.09-0.617,0.132-0.927c-0.252-0.033-1.323-0.066-1.323-0.265c-0.046,0-0.086,0-0.132,0
	C149.219-46.066,149.265-46.331,149.305-46.596 M124.046-46.596c0.963,0,3.093-0.224,3.814,0.161c0.3,0.157,5.575,7.122,5.575,7.122
	c0.046,0,0.092,0,0.132,0c0-0.178-0.046-0.132,0.134-0.132c0-1.511,0.235-3.952-0.109-5.264c-0.243-0.919-1.61-1.134-1.61-1.754
	c0.046,0,0.092,0,0.132,0c0-0.046,0-0.087,0-0.132c1.322,0,2.646,0,3.967,0c0.175,0,0.134-0.045,0.134,0.132c0.044,0,0.09,0,0.131,0
	c-0.293,0.943-1.235,0.89-1.495,2.007c-0.287,1.191-0.091,2.789-0.091,4.085c0,1.953-0.133,3.794-0.133,5.693
	c-0.496-0.033-0.908-0.049-1.265-0.339c-0.623-0.513-6.404-8.161-6.404-8.401c-0.089,0-0.175,0-0.265,0c0,1.635,0,3.27,0,4.9
	c0,0.699-0.076,1.515,0.185,2.09c0.256,0.566,0.699,0.762,1.216,1.046c0.17,0.093,0.647,0.704,0.317,0.704c0,0.046,0,0.092,0,0.133
	c-1.317-0.216-2.798-0.133-4.23-0.133c-0.18,0-0.134,0.043-0.134-0.132c-0.046,0-0.087,0-0.133,0c0-0.179,0-0.352,0-0.529
	c0.522-0.19,1.089-0.451,1.356-0.981c0.537-1.08,0.327-3.691,0.371-5.111c0.03-0.976,0.304-2.188,0.013-3.148
	c-0.242-0.804-1.74-1.316-1.74-1.486c-0.083-0.125-0.243-0.265,0-0.265C123.959-46.418,124.005-46.504,124.046-46.596
	 M47.873-46.596c1.807,0,3.617,0,5.422,0c-0.024,0.231,0.017,0.794-0.264,0.794c-0.397,0.046-0.793,0.091-1.19,0.132
	c0,3.356,0,6.712,0,10.065c0.26,0,1.322-0.112,1.322,0.132c0.045,0,0.091,0,0.132,0c0,0.265,0,0.529,0,0.794
	c-1.805,0-3.612,0-5.422,0c0-0.223-0.099-0.794,0.133-0.794c0-0.046,0-0.086,0-0.132c0.264-0.03,0.863-0.009,1.003-0.254
	c0.402-0.706,0.182-2.16,0.182-3.058c0-2.25,0.004-4.503,0.004-6.754c-0.442,0-0.88,0-1.323,0
	C47.873-45.979,47.873-46.286,47.873-46.596 M36.103-46.596c1.983,0,3.968,0,5.952,0c0,0.219,0.095,0.794-0.132,0.794
	c0,0.046,0,0.091,0,0.132c-0.529,0-1.058,0-1.587,0c0,1.374-0.232,9.315,0.215,9.854c0.31,0.372,1.269,0.344,1.769,0.344
	c0.579-0.294,1.145-0.269,1.666-0.725c0.892-0.793,1.218-2.851,2.301-2.851c-0.045,1.407-0.133,2.752-0.133,4.105
	c0,0.174,0.042,0.133-0.132,0.133c0,0.046,0,0.092,0,0.132c-3.095,0-6.142-0.132-9.125-0.132c-0.227,0-0.925,0.099-0.925-0.133
	c-0.045,0-0.086,0-0.132,0c0-0.185-0.09-0.396,0.132-0.396c0.414-0.394,1.166-0.166,1.463-0.729c0.375-0.721,0.455-8.116,0.14-9.018
	c-0.277-0.791-1.604-0.509-1.604-1.378C36.017-46.509,36.062-46.55,36.103-46.596 M24.466-46.596c1.983,0,3.967,0,5.951,0
	c0,0.219,0.096,0.794-0.132,0.794c0,0.046,0,0.091,0,0.132c-0.529,0-1.058,0-1.587,0c0.004,3.087,0.013,6.21,0.016,9.266
	c0.009,0.251-0.049,0.8,0.249,0.8c0.438,0.145,0.951,0.12,1.451,0.115c3.042-0.05,2.777-3.559,4.235-3.559
	c-0.045,1.407-0.132,2.752-0.132,4.105c0,0.174,0.042,0.133-0.132,0.133c0,0.046,0,0.092,0,0.132c-2.335,0-4.67,0-7.009-0.003
	c-0.884,0-1.976,0.136-2.74-0.121c-0.116-0.041-0.641-0.405-0.302-0.405c0-0.087,0-0.175,0-0.265
	c0.273-0.086,1.454-0.083,1.454-0.397c0.57-1.315,0.265-4.792,0.265-6.489c0-0.856,0.153-1.982-0.107-2.727
	c-0.281-0.799-1.612-0.476-1.612-1.378C24.379-46.509,24.424-46.55,24.466-46.596 M17.457-46.596c1.807,0,3.616,0,5.422,0
	c-0.025,0.231,0.017,0.794-0.265,0.794c-0.396,0.046-0.793,0.091-1.19,0.132c0,3.356,0,6.712,0,10.065
	c0.26,0,1.323-0.112,1.323,0.132c0.045,0,0.09,0,0.132,0c0,0.265,0,0.529,0,0.794c-1.806,0-3.612,0-5.422,0
	c0-0.223-0.099-0.794,0.132-0.794c0-0.046,0-0.086,0-0.132c0.272-0.03,0.86-0.009,1.004-0.254c0.331-0.583,0.182-1.651,0.182-2.395
	c0-2.47,0.005-4.942,0.005-7.417c-0.442,0-0.88,0-1.323,0C17.457-45.979,17.457-46.286,17.457-46.596 M0-46.596
	c1.587,0,3.174,0,4.761,0c0,0.207,0.1,0.662-0.133,0.662c0,0.046,0,0.091,0,0.133c-0.223,0-0.793-0.1-0.793,0.132
	c-0.045,0-0.087,0-0.132,0c0.111,1.771,0.934,3.534,1.508,5.14c0.202,0.625,0.405,1.253,0.607,1.879c0.045,0,0.091,0,0.132,0
	c0-0.046,0-0.087,0-0.132c0.463-0.877,1.323-3.365,1.376-4.375c0.024-0.583-0.215-1.316-0.426-1.792
	c-0.177-0.397-1.111-0.973-1.116-1.262c0.009-0.046,0.017-0.091,0.021-0.137c0.132-0.364,3.583-0.248,4.244-0.248
	c0.174,0,0.132-0.045,0.132,0.132c0.045,0,0.091,0,0.132,0c0,0.178,0,0.355,0,0.529c-0.335,0.05-0.748,0.112-0.873,0.468
	c-0.293,0.824,1.224,4.548,1.558,5.479c0.125,0.356,0.248,0.716,0.372,1.072c0.174,0,0.133-0.045,0.133,0.133
	c0.045,0,0.091,0,0.132,0c0-0.046,0-0.091,0-0.133c0.371-0.891,1.855-5.256,1.431-6.216c-0.191-0.43-0.509-0.629-0.898-0.819
	c-0.12-0.062-0.748-0.513-0.401-0.513c0-0.046,0-0.087,0-0.132c1.369,0,2.736,0,4.1,0c-0.228,0.844-1.14,1.105-1.516,1.887
	c-0.385,0.787-0.558,1.66-0.814,2.5c-0.48,1.618-0.959,3.241-1.443,4.859c-0.285,0.891-0.57,1.784-0.855,2.673
	c-0.339-0.045-0.748-0.074-0.971-0.339c-0.372-0.439-2.202-5.914-2.202-6.547c-0.087,0-0.173,0-0.265,0
	c-0.418,1.288-0.835,2.574-1.256,3.861c-0.269,0.866-0.418,2.069-0.984,2.789c-0.157,0.196-0.479,0.241-0.719,0.158
	c-0.508-0.178-0.661-1.192-0.802-1.622C3.36-38.463,2.682-40.546,2-42.631c-0.277-0.833-0.446-1.825-0.93-2.562
	C0.855-45.516,0.384-45.801,0-45.801C0-46.066,0-46.331,0-46.596 M169.67-46.728c0.415,0.024,0.773,0.028,1.059,0.276
	c0.487,0.423,0.625,1.23,0.863,1.809c0.76,1.866,1.525,3.737,2.286,5.604c0.36,0.939,0.683,2.148,1.318,2.951
	c0.239,0.302,0.823,0.616,1.219,0.616c-0.032,0.235,0,0.662-0.265,0.662c-1.264,0.376-3.451,0.132-4.893,0.132
	c-0.178,0-0.132,0.043-0.132-0.132c-0.046,0-0.087,0-0.133,0c0.021-0.228-0.009-0.662,0.265-0.662
	c0.186-0.092,0.376-0.184,0.562-0.276c0.311-0.58-0.025-2.087-0.632-2.369c-0.492-0.227-3.313-0.268-3.707,0.054
	c-0.248,0.199-0.372,0.559-0.455,0.861c-0.438,1.539,1.323,1.734,1.323,1.862c0.044,0,0.09,0,0.133,0
	c0,0.19,0.086,0.529-0.133,0.529c0,0.046,0,0.092,0,0.132c-1.369,0-2.731,0-4.101,0c-0.187,0-0.265,0.083-0.265-0.132
	c-0.046,0-0.086,0-0.132,0c0-0.179,0-0.352,0-0.529c0.427-0.232,0.84-0.409,1.182-0.8c0.566-0.649,0.782-1.464,1.115-2.222
	c0.724-1.867,1.448-3.733,2.172-5.6C168.666-44.94,168.968-45.929,169.67-46.728 M72.338-46.728
	c0.248,0.079,0.582,0.194,0.731,0.435c0.322,0.517,0.455,1.204,0.62,1.804c0.318,1.01,0.637,2.024,0.956,3.034
	c0.203,0.538,0.404,1.076,0.603,1.614c0.046,0,0.091,0,0.133,0c0.207-0.903,1.744-6.345,2.318-6.602
	c0.893-0.405,3.153-0.152,4.293-0.152c0,0.219,0.099,0.794-0.131,0.794c0,0.046,0,0.091,0,0.132
	c-0.447,0.025-0.992,0.025-1.17,0.468c-0.285,0.688-0.037,1.692-0.025,2.445c0,1.503,0.005,3.005,0.005,4.503
	c0,0.711-0.104,1.589,0.127,2.201c0.199,0.534,1.327,0.319,1.327,0.58c0.046,0,0.091,0,0.132,0c-0.032,0.24,0,0.662-0.265,0.662
	c-1.438,0.39-3.442,0.132-5.024,0.132c-0.178,0-0.133,0.043-0.133-0.132c-0.045,0-0.086,0-0.132,0c0-0.219,0-0.439,0-0.662
	c0.045,0,0.09,0,0.132,0c0-0.046,0-0.086,0-0.132c0.396,0,0.793,0,1.19,0c0.265-2.852,0.133-6.022,0.133-9.006
	c-0.087,0-0.173,0-0.265,0c-0.934,3.042-1.868,6.083-2.802,9.126c-0.094,0.223-0.219,0.479-0.508,0.479
	c-0.251,0-0.367-0.175-0.462-0.369c-1.066-2.176-1.549-4.676-2.369-6.965c-0.243-0.757-0.487-1.514-0.735-2.271
	c-0.086,0-0.174,0-0.264,0c0,2.031,0.029,4.18,0.12,6.092c0.033,0.654,0.066,1.308,0.099,1.962c0.22,0.877,1.501,1.001,1.501,1.878
	c-1.455,0-2.909,0-4.365,0c0-0.178,0-0.351,0-0.529c0.501-0.182,1.095-0.459,1.311-0.993c0.29-0.732,0.141-1.85,0.141-2.715
	c0-2.305-0.128-4.531-0.128-6.754c-0.525-0.049-0.979-0.265-1.454-0.265c0-0.132,0-0.265,0-0.397
	C69.206-46.902,71.021-46.339,72.338-46.728 M60.304-46.728c0.388,0.024,0.781,0.037,1.058,0.276c0.5,0.431,0.645,1.271,0.885,1.859
	c0.586,1.436,3.008,8.318,4.013,8.845c0.355,0.185,0.687,0.292,0.668,0.798c-0.007,0.174,0.014,0.141-0.143,0.141
	c-1.405,0.381-3.348,0.132-4.894,0.132c-0.178,0-0.132,0.043-0.132-0.132c-0.046,0-0.086,0-0.132,0
	c0.021-0.228-0.008-0.662,0.265-0.662c0.185-0.092,0.376-0.184,0.562-0.276c0.311-0.58-0.021-2.087-0.632-2.369
	c-0.492-0.227-3.315-0.268-3.707,0.054c-0.29,0.232-0.389,0.621-0.48,0.964c-0.384,1.424,1.347,1.622,1.347,1.76
	c0.045,0,0.091,0,0.132,0c0,0.19,0.087,0.529-0.132,0.529c0,0.046,0,0.092,0,0.132c-1.367,0-2.731,0-4.1,0
	c-0.186,0-0.264,0.083-0.264-0.132c-0.046,0-0.087,0-0.132,0c0-0.179,0-0.352,0-0.529c0.413-0.228,0.772-0.377,1.12-0.729
	c0.587-0.612,0.806-1.437,1.132-2.185c0.724-1.863,1.451-3.725,2.174-5.591C59.299-44.862,59.564-45.884,60.304-46.728
	 M142.032-46.861c1.062,0,2.141,0.145,3,0.6c3.832,2.02,4.559,8.004,0.959,10.644c-0.785,0.571-1.639,1.039-2.646,1.155
	c-5.523,0.621-8.186-5.848-5.331-9.957C139.022-45.88,140.457-46.376,142.032-46.861 M116.376-46.861c1.191,0,2.41,0.19,3.315,0.778
	c3.504,2.276,4.273,7.892,0.644,10.466c-0.797,0.56-1.628,1.039-2.645,1.155c-5.455,0.613-8.355-5.997-5.286-10.016
	C113.5-45.914,114.781-46.331,116.376-46.861 M104.606-46.861c0.693,0,1.413,0.008,1.992,0.24c0.475,0.187,1.048,0.687,1.577,0.687
	c0.122-0.153,1.19-1.216,1.19-0.662c0.046,0,0.092,0,0.133,0c0,1.324,0,2.648,0,3.973c0,0.174,0.042,0.132-0.133,0.132
	c0,0.046,0,0.091,0,0.133c-0.123-0.029-0.248-0.058-0.375-0.087c-0.186-0.062-0.295-0.161-0.397-0.314
	c-0.206-0.422-0.413-0.84-0.619-1.263c-0.727-1.225-2.207-2.544-3.773-1.796c-0.558,0.26-1.032,0.711-1.115,1.349
	c-0.307,2.286,3.799,2.355,5.169,3.096c0.773,0.414,1.318,1.221,1.513,2.052c0.178,0.766,0.092,1.685-0.148,2.385
	c-0.579,1.672-2.555,2.88-4.446,2.446c-0.914-0.212-2.041-1.23-2.832-0.618c-0.165,0.125-1.04,0.658-1.04,0.299
	c-0.046,0-0.087,0-0.133,0c0-1.369,0-2.735,0-4.105c0-0.186-0.07-0.265,0.133-0.265c0-0.046,0-0.086,0-0.132
	c1.009,0.166,1.049,1.068,1.529,1.804c0.771,1.197,2.181,2.525,3.747,2.126c0.745-0.189,1.216-0.694,1.459-1.418
	c0.145-0.444,0.009-0.944-0.182-1.292c-0.268-0.484-0.794-0.75-1.271-0.94c-1.456-0.583-3.109-0.542-4.267-1.7
	c-1.982-1.987-0.674-5.997,2.29-5.997C104.606-46.774,104.606-46.815,104.606-46.861 M87.943-46.861
	c0.699,0,1.355,0.025,1.946,0.224c0.514,0.169,1.062,0.703,1.625,0.703c0.12-0.153,1.191-1.216,1.191-0.662c0.044,0,0.09,0,0.13,0
	c0,1.324,0,2.648,0,3.973c0,0.174,0.043,0.132-0.13,0.132c0,0.046,0,0.091,0,0.133c-0.126-0.029-0.249-0.058-0.376-0.087
	c-0.188-0.062-0.295-0.161-0.397-0.314c-0.208-0.422-0.414-0.84-0.621-1.263c-0.727-1.225-2.205-2.544-3.771-1.796
	c-0.554,0.26-1.034,0.711-1.117,1.349c-0.317,2.364,3.866,2.293,5.236,3.137c0.619,0.381,1.103,0.981,1.347,1.66
	c0.278,0.778,0.248,1.776,0.009,2.561c-0.625,2.024-2.806,3.061-4.926,2.521c-0.751-0.195-1.591-1.118-2.343-0.571
	c-0.161,0.111-1.106,0.732-1.106,0.352c-0.046,0-0.088,0-0.134,0c0-1.369,0-2.735,0-4.105c0-0.186-0.086-0.265,0.134-0.265
	c0-0.046,0-0.086,0-0.132c0.949,0.158,1.061,0.981,1.472,1.71c0.718,1.282,2.177,2.606,3.804,2.221
	c0.691-0.164,1.175-0.64,1.418-1.302c0.15-0.419,0.104-0.87-0.062-1.255c-0.225-0.513-0.711-0.807-1.191-1.022
	c-1.48-0.666-3.094-0.625-4.359-1.709c-2.21-1.896-0.674-6.059,2.223-6.059C87.943-46.774,87.943-46.815,87.943-46.861"/>
<path fill-rule="evenodd" clip-rule="evenodd" d="M176.082,91.871c0,1.1-0.893,1.973-1.975,1.973s-1.975-0.873-1.975-1.973
	c0-1.082,0.893-1.955,1.975-1.955S176.082,90.789,176.082,91.871L176.082,91.871z M175.854,91.871c0-0.949-0.777-1.729-1.746-1.729
	s-1.746,0.779-1.746,1.746c0,0.949,0.777,1.729,1.746,1.729S175.854,92.838,175.854,91.871L175.854,91.871z M173.367,92.896h0.285
	v-0.932h0.721c0.438,0,0.322,0.398,0.361,0.666l0.037,0.266h0.342c-0.113-0.191-0.076-0.229-0.094-0.514
	c-0.039-0.379-0.059-0.418-0.266-0.551c0.207-0.17,0.283-0.266,0.283-0.549c-0.037-0.494-0.359-0.551-0.701-0.551h-0.969V92.896
	L173.367,92.896z M129.236,89.688v21.051h21.562c31.965,0,31.965-21.051,0-21.051H129.236L129.236,89.688z M78.081,110.947
	c9.148,0,16.647-4.896,16.647-10.877c0-5.998-7.499-10.875-16.647-10.875c-9.188,0-16.666,4.877-16.666,10.875
	C61.415,106.051,68.894,110.947,78.081,110.947L78.081,110.947z M11.438,110.738c4.802,0,8.655-1.822,8.655-5.732
	s-4.138-5.012-4.138-5.012c3.321-1.119,2.98-4.953,2.98-4.953c0-5.58-8.409-5.354-8.409-5.354H0.333v21.051H11.438L11.438,110.738z
	 M173.955,74.37c-1.32,1.462-2.57,2.737-3.756,3.843c-2.812-3.746-5.934-7.893-7.391-9.81c2.986-2.12,5.604-4.274,5.604-6.979
	c0-2.866-2.201-5.657-5.219-5.657c-3,0-5.695,2.469-5.695,5.562c0,3.074,3.047,6.557,3.047,6.557
	c-0.65,0.413-1.371,0.877-2.172,1.416c-3.305,2.201-6.701,4.593-6.701,9.661c0,5.067,4.953,7.308,7.688,7.308
	c2.715,0,5.617-1.633,9.377-4.537c0.445-0.346,0.873-0.703,1.285-1.064l3.688,4.975h2.068c0,0-2.045-2.729-4.562-6.08
	c2.402-2.338,3.938-4.511,3.938-4.511L173.955,74.37L173.955,74.37z M84.345,85.645h1.917l3.891-9.718h12.699l3.93,9.718h1.879
	l-12.186-30.18L84.345,85.645L84.345,85.645z M36.474,56.451v29.193h6.188c19.532,0,19.114-29.193,0.437-29.193H36.474
	L36.474,56.451z M76.334,85.645c4.386,0,9.302-1.975,9.302-8.162c0-6.131-5.79-7.307-5.79-7.307
	c3.645-1.975,3.228-6.625,3.228-6.625c-0.305-7.1-7.441-7.1-7.441-7.1h-6.644v29.193H76.334L76.334,85.645z M7.926,85.645
	c4.385,0,9.339-1.975,9.339-8.162c0-6.131-5.827-7.307-5.827-7.307c3.663-1.975,3.227-6.625,3.227-6.625
	c-0.285-7.1-7.422-7.1-7.422-7.1H0.58v29.193H7.926L7.926,85.645z M174.355,90.979h-0.703v0.74h0.703
	c0.189,0,0.359-0.037,0.398-0.322C174.791,91.016,174.525,90.979,174.355,90.979L174.355,90.979z M146.186,104.359h2.26
	c12.262,0,12.262-8.123,0-8.123h-2.26V104.359L146.186,104.359z M95.088,89.688v21.051h11.086v-7.479c0,0-0.189-1.918-0.551-2.809
	c-0.379-0.912,0.189-1.064,0.74-0.457l10.137,10.744h11.16V89.688h-11.123v7.916c0,0,0.285,1.898,0.664,2.809
	c0.381,0.893-0.189,1.045-0.74,0.455l-10.041-11.18H95.088L95.088,89.688z M78.081,95.914c-3.133,0-5.695,1.859-5.695,4.156
	c0,2.277,2.562,4.158,5.695,4.158c3.132,0,5.676-1.881,5.676-4.158C83.757,97.773,81.213,95.914,78.081,95.914L78.081,95.914z
	 M21.421,89.688v21.051h17.216v-5.713h-8.105v-2.146h7.099v-5.408h-7.099V95.4h7.726v-4.896l9.187,10.971v9.264h9.927v-8.959
	l9.795-12.092h-11.56l-3.132,5.961l-3.284-5.961H21.421L21.421,89.688z M8.021,97.926h1.993c2.126,0,2.126-3.189,0-3.189H8.021
	V97.926L8.021,97.926z M8.021,102.311v3.473h2.278c2.98,0,2.98-3.473,0-3.473H8.021L8.021,102.311z M169.002,79.295l-7.432-10.024
	c-2.686,1.866-3.469,2.347-4.793,3.353c-1.404,1.102-3.379,2.734-3.379,5.848c0,3.112,2.469,5.922,5.695,5.922
	C161.465,84.393,164.76,82.987,169.002,79.295L169.002,79.295z M161.814,67.084c1.354-0.861,2.35-1.536,3.162-2.395
	c1.367-1.442,1.596-2.354,1.596-3.265c0-0.892-0.588-3.796-3.588-3.796c-3.018,0-3.701,2.676-3.701,4.023
	C159.283,62.871,160.049,64.646,161.814,67.084L161.814,67.084z M123.256,68.752V56.451h-1.689v29.193h1.689v-15.07h17.805v15.07
	h1.689V56.451h-1.689v12.301H123.256L123.256,68.752z M102.908,56.451v1.652h7.555v27.541h1.689V58.104h7.574v-1.652H102.908
	L102.908,56.451z M102.168,74.237l-5.693-14.142l-5.657,14.142H102.168L102.168,74.237z M38.429,58.273v25.492h4.404
	c16.476,0,16.722-25.492,0-25.492H38.429L38.429,58.273z M19.523,56.451v29.193h13.914v-1.803H21.308V70.574h11.787v-1.689H21.308
	V58.273h12.129v-1.822H19.523L19.523,56.451z M70.621,58.236V69.72h4.897c7.725,0,7.706-11.483,0-11.483H70.621L70.621,58.236z
	 M2.212,58.236V69.72h4.897c7.726,0,7.707-11.483,0-11.483H2.212L2.212,58.236z M70.659,71.6v12.223h6.264
	c9.148,0,9.396-12.223,0.246-12.223H70.659L70.659,71.6z M2.269,71.6v12.223h6.245c9.168,0,9.415-12.223,0.247-12.223H2.269
	L2.269,71.6z"/>
</svg>
