<?xml version="1.0" encoding="utf-8"?>
<!-- Generator: Adobe Illustrator 16.0.5, SVG Export Plug-In . SVG Version: 6.00 Build 0)  -->
<!DOCTYPE svg PUBLIC "-//W3C//DTD SVG 1.1//EN" "http://www.w3.org/Graphics/SVG/1.1/DTD/svg11.dtd">
<svg version="1.1" id="Layer_1" xmlns="http://www.w3.org/2000/svg" xmlns:xlink="http://www.w3.org/1999/xlink" x="0px" y="0px"
	 width="175.748px" height="25.078px" viewBox="-0.333 -55.465 175.748 25.078"
	 enable-background="new -0.333 -55.465 175.748 25.078" xml:space="preserve">
<path fill="#58595B" d="M92.008-31.035l-1.723-2.151c-1.397,1.399-4.52,2.799-6.78,2.799c-3.875,0-7.211-2.799-7.211-6.457
	c0-4.521,4.305-6.996,5.596-7.426c-0.861-1.076-2.367-2.906-2.367-5.166c0.107-3.014,1.937-5.381,5.919-5.381
	c3.444,0,6.028,2.26,6.028,5.596c0,3.767-2.906,5.058-3.768,5.812l2.798,3.981c0.753-0.969,1.507-3.336,1.399-3.766h3.767
	c0,0-0.538,4.734-2.69,6.994l3.981,5.166L92.008-31.035L92.008-31.035z M85.55-51.268c-1.184,0-2.152,0.969-2.044,1.938
	c0.107,1.292,1.184,2.152,1.83,3.014c0.861-0.646,2.368-1.507,2.368-2.906C87.703-50.299,86.841-51.268,85.55-51.268L85.55-51.268z
	 M84.151-41.258c-3.659,2.475-3.444,4.197-3.444,4.197c0,1.721,1.614,2.688,2.798,2.797c1.399,0,3.444-1.185,4.413-2.045
	L84.151-41.258L84.151-41.258z M19.792-44.703h4.413c-0.753-6.241-6.135-10.762-12.054-10.762c-6.996,0-12.484,5.381-12.484,12.592
	c0,7.642,6.888,12.162,12.377,12.162c4.843,0,10.977-3.338,11.946-9.688h-4.52c-0.538,2.045-3.014,5.166-7.318,5.166
	c-4.52,0-7.856-3.336-7.964-7.642c-0.107-4.412,3.336-8.071,7.964-8.071C15.811-50.945,18.932-48.146,19.792-44.703L19.792-44.703z
	 M56.384-30.926h3.659v-3.338c-0.431-0.107-3.336,0.646-3.336-1.721v-9.364h2.906v-3.121h-2.906v-5.381h-4.52v5.166h-2.26v3.336
	h2.26v10.439C52.187-33.51,52.833-30.926,56.384-30.926L56.384-30.926z M29.479-38.891c-0.215-5.274,2.906-6.243,5.166-5.597v-4.197
	c0,0-0.969-0.107-1.938,0c-1.399,0.431-2.69,1.398-3.336,2.26v-1.722h-4.305v17.11h4.413C29.479-31.035,29.479-38.676,29.479-38.891
	L29.479-38.891z M63.38-38.568c0,2.26,2.152,3.981,4.413,3.981c1.614,0,2.583-0.646,3.444-1.938h4.628
	c-0.646,3.014-3.767,5.812-7.856,5.812c-5.274,0-9.041-3.981-9.041-9.578c0-4.306,3.229-8.718,8.502-8.61
	c6.026,0.107,8.717,5.273,8.609,10.332L63.38-38.568L63.38-38.568z M67.362-45.348c-1.937-0.108-3.767,1.398-3.767,3.551h7.533
	C71.128-43.949,69.407-45.348,67.362-45.348L67.362-45.348z M46.052-31.035c0,0.109-0.107-0.645-0.323-1.397
	c-0.753,0.646-2.475,1.938-5.166,1.938c-3.013,0-6.457-1.83-6.457-5.381c0-2.151,1.399-4.951,6.242-5.598
	c2.798-0.43,4.951-0.215,5.058-1.721c0.107-0.538-0.43-2.368-3.229-2.368c-1.291,0-2.906,0.43-3.229,2.475h-3.875
	c0-3.013,1.83-5.596,7.534-5.596c3.552,0,7.103,1.507,7.103,5.381c0,0,0,9.146,0,9.471c0.108,0.97,0.431,2.26,0.753,2.797
	L46.052-31.035L46.052-31.035z M38.088-35.984c0.108,1.827,2.475,2.151,2.906,1.936c0,0,2.368,0,3.444-1.184
	c0.646-0.859,0.969-1.937,0.646-4.306C40.779-38.568,38.088-38.137,38.088-35.984L38.088-35.984z M171.11-54.065v23.029h4.305
	v-23.029H171.11L171.11-54.065z M148.401-38.783c-0.215-5.272,2.799-6.241,5.271-5.596v-4.197c0,0-0.969-0.215-2.045,0
	c-1.396,0.323-2.583,1.399-3.337,2.261v-1.723h-4.308v17.003h4.412C148.401-31.035,148.401-38.568,148.401-38.783L148.401-38.783z
	 M137.747-38.783c-0.215-5.272,2.906-6.241,5.166-5.596v-4.197c0,0-0.969-0.215-1.938,0c-1.398,0.323-2.584,1.399-3.336,2.261
	v-1.723h-4.412v17.003h4.52C137.747-31.035,137.747-38.568,137.747-38.783L137.747-38.783z M157.657-38.461
	c0,2.152,2.152,3.875,4.412,3.875c1.507,0,2.584-0.537,3.443-1.938h4.521c-0.538,3.014-3.659,5.812-7.749,5.812
	c-5.166,0-9.04-3.981-9.04-9.471c0-4.307,3.229-8.718,8.502-8.61c5.919,0,8.718,5.273,8.502,10.331L157.657-38.461L157.657-38.461z
	 M161.747-45.348c-2.045,0-3.874,1.398-3.874,3.551h7.533C165.406-43.841,163.792-45.348,161.747-45.348L161.747-45.348z
	 M109.228-31.035c-4.844,0-12.055,0-12.055,0v-23.138h10.439c3.552,0,7.211,1.614,7.211,5.919c0,3.551-2.799,4.305-3.443,4.843
	c2.044,0.646,4.305,2.583,4.305,6.352C115.685-32.971,111.702-31.035,109.228-31.035L109.228-31.035z M106.644-50.514h-5.164v5.704
	h4.949c1.076,0,3.659-0.431,3.659-3.121C110.088-49.761,108.259-50.514,106.644-50.514L106.644-50.514z M106.644-41.365h-5.164
	v6.779h5.487c0.755,0,3.659-0.646,3.659-3.121C110.626-39.105,110.304-41.365,106.644-41.365L106.644-41.365z M128.276-31.035
	c0,0.109-0.215-0.645-0.323-1.397c-0.753,0.646-2.476,1.938-5.165,1.938c-3.014,0-6.458-1.83-6.458-5.381
	c0-2.151,1.399-4.844,6.351-5.598c2.582-0.43,4.842-0.215,4.95-1.721c0.106-0.431-0.431-2.261-3.229-2.261
	c-1.291,0-2.799,0.323-3.121,2.477h-3.979c0-3.014,2.046-5.597,7.533-5.597c3.442,0,6.996,1.507,7.104,5.382
	c0,3.229,0,8.824,0,8.824c0,0.754,0.321,2.691,0.646,3.336h-4.308V-31.035L128.276-31.035z M120.851-35.984
	c0,1.827,2.478,2.151,2.905,1.936c0,0,2.368,0,3.337-1.184c0.646-0.859,0.86-1.828,0.646-4.306
	C123.541-38.461,120.851-38.137,120.851-35.984L120.851-35.984z"/>
</svg>
