<?xml version="1.0" encoding="utf-8"?>
<!-- Generator: Adobe Illustrator 16.0.5, SVG Export Plug-In . SVG Version: 6.00 Build 0)  -->
<!DOCTYPE svg PUBLIC "-//W3C//DTD SVG 1.1//EN" "http://www.w3.org/Graphics/SVG/1.1/DTD/svg11.dtd">
<svg version="1.1" id="Layer_1" xmlns="http://www.w3.org/2000/svg" xmlns:xlink="http://www.w3.org/1999/xlink" x="0px" y="0px"
	 width="55.494px" height="7.858px" viewBox="0 0 55.494 7.858" enable-background="new 0 0 55.494 7.858" xml:space="preserve">
<g>
	<line fill="none" stroke="#58595B" stroke-width="0.5" stroke-miterlimit="10" x1="24.747" y1="3.924" x2="0" y2="3.924"/>
	<path fill="#58595B" d="M13.354,3.924c0-0.631,0.512-1.143,1.143-1.143c0.631,0,1.143,0.512,1.143,1.143
		c0,0.631-0.512,1.143-1.143,1.143C13.866,5.067,13.354,4.555,13.354,3.924"/>
	<path fill="#58595B" d="M26.604,3.924c0-0.631,0.512-1.143,1.143-1.143c0.631,0,1.143,0.512,1.143,1.143
		c0,0.631-0.512,1.143-1.143,1.143C27.116,5.067,26.604,4.555,26.604,3.924"/>
	<path fill="none" stroke="#58595B" stroke-width="0.5" stroke-miterlimit="10" d="M24.764,3.929
		c-0.579,0.015-1.155-0.011-1.721-0.077c-0.566-0.067-1.121-0.173-1.657-0.317s-1.054-0.326-1.545-0.543
		c-0.492-0.217-0.956-0.47-1.386-0.756c-0.43-0.286-0.826-0.606-1.179-0.957c-0.353-0.351-0.664-0.734-0.924-1.145"/>
	<path fill="none" stroke="#58595B" stroke-width="0.5" stroke-miterlimit="10" d="M24.764,3.929
		c-0.579-0.015-1.155,0.011-1.721,0.077c-0.566,0.067-1.121,0.173-1.657,0.317s-1.054,0.326-1.545,0.543
		c-0.492,0.217-0.956,0.47-1.386,0.756c-0.43,0.286-0.826,0.605-1.179,0.957s-0.664,0.734-0.924,1.145"/>
	<line fill="none" stroke="#58595B" stroke-width="0.5" stroke-miterlimit="10" x1="30.747" y1="3.924" x2="55.494" y2="3.924"/>
	<path fill="#58595B" d="M42.14,3.924c0-0.631-0.512-1.143-1.143-1.143s-1.143,0.512-1.143,1.143c0,0.631,0.512,1.143,1.143,1.143
		S42.14,4.555,42.14,3.924"/>
	<path fill="#58595B" d="M28.89,3.924c0-0.631-0.512-1.143-1.143-1.143s-1.143,0.512-1.143,1.143c0,0.631,0.512,1.143,1.143,1.143
		S28.89,4.555,28.89,3.924"/>
	<path fill="none" stroke="#58595B" stroke-width="0.5" stroke-miterlimit="10" d="M30.729,3.929
		c0.579,0.015,1.155-0.011,1.721-0.077c0.566-0.067,1.121-0.173,1.657-0.317s1.054-0.326,1.545-0.543
		c0.492-0.217,0.956-0.47,1.386-0.756c0.43-0.286,0.826-0.606,1.179-0.957c0.353-0.351,0.664-0.734,0.924-1.145"/>
	<path fill="none" stroke="#58595B" stroke-width="0.5" stroke-miterlimit="10" d="M30.729,3.929
		c0.579-0.015,1.155,0.011,1.721,0.077c0.566,0.067,1.121,0.173,1.657,0.317s1.054,0.326,1.545,0.543
		c0.492,0.217,0.956,0.47,1.386,0.756c0.43,0.286,0.826,0.605,1.179,0.957s0.664,0.734,0.924,1.145"/>
</g>
</svg>
