<?xml version="1.0" encoding="utf-8"?>
<!-- Generator: Adobe Illustrator 16.0.5, SVG Export Plug-In . SVG Version: 6.00 Build 0)  -->
<!DOCTYPE svg PUBLIC "-//W3C//DTD SVG 1.1//EN" "http://www.w3.org/Graphics/SVG/1.1/DTD/svg11.dtd">
<svg version="1.1" id="Layer_1" xmlns="http://www.w3.org/2000/svg" xmlns:xlink="http://www.w3.org/1999/xlink" x="0px" y="0px"
	 width="57.771px" height="20.887px" viewBox="0 0 57.771 20.887" enable-background="new 0 0 57.771 20.887" xml:space="preserve">
<g>
	<defs>
		<rect id="SVGID_1_" x="-818.992" y="-501.373" width="1224" height="792"/>
	</defs>
	<clipPath id="SVGID_2_">
		<use xlink:href="#SVGID_1_"  overflow="visible"/>
	</clipPath>
	<g clip-path="url(#SVGID_2_)">
		<defs>
			<rect id="SVGID_11_" x="-818.992" y="-501.373" width="1224" height="792"/>
		</defs>
		<clipPath id="SVGID_4_">
			<use xlink:href="#SVGID_11_"  overflow="visible"/>
		</clipPath>
	</g>
	<g clip-path="url(#SVGID_2_)">
		<defs>
			<rect id="SVGID_13_" x="-818.992" y="-501.373" width="1224" height="792"/>
		</defs>
		<clipPath id="SVGID_6_">
			<use xlink:href="#SVGID_13_"  overflow="visible"/>
		</clipPath>
	</g>
	<g clip-path="url(#SVGID_2_)">
		<defs>
			<rect id="SVGID_15_" x="-818.992" y="-501.373" width="1224" height="792"/>
		</defs>
		<clipPath id="SVGID_8_">
			<use xlink:href="#SVGID_15_"  overflow="visible"/>
		</clipPath>
	</g>
	<g clip-path="url(#SVGID_2_)">
		<defs>
			<rect id="SVGID_17_" x="-818.992" y="-501.373" width="1224" height="792"/>
		</defs>
		<clipPath id="SVGID_10_">
			<use xlink:href="#SVGID_17_"  overflow="visible"/>
		</clipPath>
	</g>
	<g clip-path="url(#SVGID_2_)">
		<defs>
			<rect id="SVGID_19_" x="-818.992" y="-501.373" width="1224" height="792"/>
		</defs>
		<clipPath id="SVGID_12_">
			<use xlink:href="#SVGID_19_"  overflow="visible"/>
		</clipPath>
	</g>
	<g clip-path="url(#SVGID_2_)">
		<defs>
			<rect id="SVGID_21_" x="-818.992" y="-501.373" width="1224" height="792"/>
		</defs>
		<clipPath id="SVGID_14_">
			<use xlink:href="#SVGID_21_"  overflow="visible"/>
		</clipPath>
	</g>
	<g clip-path="url(#SVGID_2_)">
		<defs>
			<rect id="SVGID_23_" x="-818.992" y="-501.373" width="1224" height="792"/>
		</defs>
		<clipPath id="SVGID_16_">
			<use xlink:href="#SVGID_23_"  overflow="visible"/>
		</clipPath>
	</g>
	<g clip-path="url(#SVGID_2_)">
		<defs>
			<rect id="SVGID_25_" x="-818.992" y="-501.373" width="1224" height="792"/>
		</defs>
		<clipPath id="SVGID_18_">
			<use xlink:href="#SVGID_25_"  overflow="visible"/>
		</clipPath>
	</g>
	<g clip-path="url(#SVGID_2_)">
		<defs>
			<rect id="SVGID_27_" x="-818.992" y="-501.373" width="1224" height="792"/>
		</defs>
		<clipPath id="SVGID_20_">
			<use xlink:href="#SVGID_27_"  overflow="visible"/>
		</clipPath>
	</g>
	<g clip-path="url(#SVGID_2_)">
		<defs>
			<rect id="SVGID_29_" x="-818.992" y="-501.373" width="1224" height="792"/>
		</defs>
		<clipPath id="SVGID_22_">
			<use xlink:href="#SVGID_29_"  overflow="visible"/>
		</clipPath>
	</g>
	<g clip-path="url(#SVGID_2_)">
		<defs>
			<rect id="SVGID_31_" x="-818.992" y="-501.373" width="1224" height="792"/>
		</defs>
		<clipPath id="SVGID_24_">
			<use xlink:href="#SVGID_31_"  overflow="visible"/>
		</clipPath>
	</g>
	<g clip-path="url(#SVGID_2_)">
		<defs>
			<rect id="SVGID_33_" x="-818.992" y="-501.373" width="1224" height="792"/>
		</defs>
		<clipPath id="SVGID_26_">
			<use xlink:href="#SVGID_33_"  overflow="visible"/>
		</clipPath>
	</g>
	<g clip-path="url(#SVGID_2_)">
		<defs>
			<rect id="SVGID_35_" x="-818.992" y="-501.373" width="1224" height="792"/>
		</defs>
		<clipPath id="SVGID_28_">
			<use xlink:href="#SVGID_35_"  overflow="visible"/>
		</clipPath>
	</g>
	<g clip-path="url(#SVGID_2_)">
		<defs>
			<rect id="SVGID_37_" x="-818.992" y="-501.373" width="1224" height="792"/>
		</defs>
		<clipPath id="SVGID_30_">
			<use xlink:href="#SVGID_37_"  overflow="visible"/>
		</clipPath>
	</g>
	<g clip-path="url(#SVGID_2_)">
		<defs>
			<rect id="SVGID_39_" x="-818.992" y="-501.373" width="1224" height="792"/>
		</defs>
		<clipPath id="SVGID_32_">
			<use xlink:href="#SVGID_39_"  overflow="visible"/>
		</clipPath>
	</g>
	<g clip-path="url(#SVGID_2_)">
		<defs>
			<rect id="SVGID_41_" x="-818.992" y="-501.373" width="1224" height="792"/>
		</defs>
		<clipPath id="SVGID_34_">
			<use xlink:href="#SVGID_41_"  overflow="visible"/>
		</clipPath>
	</g>
	<g clip-path="url(#SVGID_2_)">
		<defs>
			<rect id="SVGID_43_" x="-818.992" y="-501.373" width="1224" height="792"/>
		</defs>
		<clipPath id="SVGID_36_">
			<use xlink:href="#SVGID_43_"  overflow="visible"/>
		</clipPath>
	</g>
	<g clip-path="url(#SVGID_2_)">
		<defs>
			<rect id="SVGID_45_" x="-818.992" y="-501.373" width="1224" height="792"/>
		</defs>
		<clipPath id="SVGID_38_">
			<use xlink:href="#SVGID_45_"  overflow="visible"/>
		</clipPath>
	</g>
	<g clip-path="url(#SVGID_2_)">
		<defs>
			<rect id="SVGID_47_" x="-818.992" y="-501.373" width="1224" height="792"/>
		</defs>
		<clipPath id="SVGID_40_">
			<use xlink:href="#SVGID_47_"  overflow="visible"/>
		</clipPath>
	</g>
	<g clip-path="url(#SVGID_2_)">
		<defs>
			<rect id="SVGID_49_" x="-818.992" y="-501.373" width="1224" height="792"/>
		</defs>
		<clipPath id="SVGID_42_">
			<use xlink:href="#SVGID_49_"  overflow="visible"/>
		</clipPath>
	</g>
	<g clip-path="url(#SVGID_2_)">
		<defs>
			<rect id="SVGID_51_" x="-818.992" y="-501.373" width="1224" height="792"/>
		</defs>
		<clipPath id="SVGID_44_">
			<use xlink:href="#SVGID_51_"  overflow="visible"/>
		</clipPath>
	</g>
	<g clip-path="url(#SVGID_2_)">
		<defs>
			<rect id="SVGID_53_" x="-818.992" y="-501.373" width="1224" height="792"/>
		</defs>
		<clipPath id="SVGID_46_">
			<use xlink:href="#SVGID_53_"  overflow="visible"/>
		</clipPath>
	</g>
	<g clip-path="url(#SVGID_2_)">
		<defs>
			<rect id="SVGID_55_" x="-818.992" y="-501.373" width="1224" height="792"/>
		</defs>
		<clipPath id="SVGID_48_">
			<use xlink:href="#SVGID_55_"  overflow="visible"/>
		</clipPath>
	</g>
	<g clip-path="url(#SVGID_2_)">
		<defs>
			<rect id="SVGID_57_" x="-818.992" y="-501.373" width="1224" height="792"/>
		</defs>
		<clipPath id="SVGID_50_">
			<use xlink:href="#SVGID_57_"  overflow="visible"/>
		</clipPath>
	</g>
	<g clip-path="url(#SVGID_2_)">
		<defs>
			<rect id="SVGID_59_" x="-818.992" y="-501.373" width="1224" height="792"/>
		</defs>
		<clipPath id="SVGID_52_">
			<use xlink:href="#SVGID_59_"  overflow="visible"/>
		</clipPath>
	</g>
	<g clip-path="url(#SVGID_2_)">
		<defs>
			<rect id="SVGID_61_" x="-818.992" y="-501.373" width="1224" height="792"/>
		</defs>
		<clipPath id="SVGID_54_">
			<use xlink:href="#SVGID_61_"  overflow="visible"/>
		</clipPath>
	</g>
	<g clip-path="url(#SVGID_2_)">
		<defs>
			<rect id="SVGID_63_" x="-818.992" y="-501.373" width="1224" height="792"/>
		</defs>
		<clipPath id="SVGID_56_">
			<use xlink:href="#SVGID_63_"  overflow="visible"/>
		</clipPath>
	</g>
	<g clip-path="url(#SVGID_2_)">
		<defs>
			<rect id="SVGID_65_" x="-818.992" y="-501.373" width="1224" height="792"/>
		</defs>
		<clipPath id="SVGID_58_">
			<use xlink:href="#SVGID_65_"  overflow="visible"/>
		</clipPath>
	</g>
	<g clip-path="url(#SVGID_2_)">
		<defs>
			<rect id="SVGID_67_" x="-818.992" y="-501.373" width="1224" height="792"/>
		</defs>
		<clipPath id="SVGID_60_">
			<use xlink:href="#SVGID_67_"  overflow="visible"/>
		</clipPath>
	</g>
	<g clip-path="url(#SVGID_2_)">
		<defs>
			<rect id="SVGID_69_" x="-818.992" y="-501.373" width="1224" height="792"/>
		</defs>
		<clipPath id="SVGID_62_">
			<use xlink:href="#SVGID_69_"  overflow="visible"/>
		</clipPath>
	</g>
	<g clip-path="url(#SVGID_2_)">
		<defs>
			<rect id="SVGID_71_" x="-818.992" y="-501.373" width="1224" height="792"/>
		</defs>
		<clipPath id="SVGID_64_">
			<use xlink:href="#SVGID_71_"  overflow="visible"/>
		</clipPath>
	</g>
	<g clip-path="url(#SVGID_2_)">
		<defs>
			<rect id="SVGID_73_" x="-818.992" y="-501.373" width="1224" height="792"/>
		</defs>
		<clipPath id="SVGID_66_">
			<use xlink:href="#SVGID_73_"  overflow="visible"/>
		</clipPath>
	</g>
</g>
<g>
	<line fill="none" stroke="#58595B" stroke-width="0.5" stroke-miterlimit="10" x1="0" y1="6.296" x2="54.343" y2="6.296"/>
	<path fill="none" stroke="#58595B" stroke-width="0.5" stroke-miterlimit="10" d="M54.175,6.273c0.231,0,0.456-0.023,0.674-0.068
		s0.429-0.11,0.629-0.195s0.39-0.188,0.567-0.309c0.179-0.12,0.345-0.258,0.496-0.408c0.151-0.152,0.289-0.316,0.408-0.495
		c0.121-0.178,0.225-0.369,0.309-0.569c0.085-0.199,0.15-0.41,0.195-0.627c0.045-0.219,0.067-0.443,0.067-0.675
		c0-0.185-0.019-0.366-0.054-0.54c-0.036-0.174-0.088-0.342-0.156-0.502s-0.15-0.312-0.247-0.455
		c-0.096-0.143-0.206-0.275-0.327-0.396c-0.121-0.121-0.254-0.231-0.396-0.327s-0.296-0.18-0.455-0.247
		c-0.16-0.067-0.328-0.12-0.502-0.156c-0.175-0.036-0.354-0.054-0.54-0.054c-0.148,0-0.292,0.016-0.432,0.043
		c-0.14,0.029-0.273,0.07-0.401,0.125s-0.25,0.12-0.364,0.197c-0.113,0.076-0.22,0.164-0.316,0.262
		c-0.098,0.098-0.186,0.203-0.263,0.316c-0.077,0.115-0.143,0.235-0.196,0.365c-0.055,0.127-0.097,0.262-0.125,0.401
		s-0.043,0.283-0.043,0.431c0,0.119,0.012,0.234,0.033,0.346c0.023,0.111,0.057,0.22,0.1,0.322c0.045,0.103,0.098,0.199,0.158,0.291
		c0.062,0.09,0.133,0.176,0.209,0.254c0.078,0.076,0.164,0.146,0.254,0.209c0.092,0.062,0.189,0.114,0.291,0.157
		c0.104,0.044,0.211,0.077,0.322,0.101c0.111,0.022,0.227,0.035,0.346,0.035c0.095,0,0.187-0.011,0.275-0.028
		c0.09-0.019,0.176-0.046,0.258-0.08c0.082-0.035,0.159-0.077,0.232-0.127c0.072-0.05,0.141-0.104,0.203-0.167
		s0.117-0.131,0.168-0.203c0.049-0.073,0.091-0.15,0.126-0.232c0.034-0.082,0.062-0.168,0.08-0.258
		c0.019-0.089,0.028-0.181,0.028-0.275c0-0.076-0.008-0.15-0.023-0.221c-0.014-0.072-0.036-0.141-0.064-0.207
		c-0.027-0.064-0.061-0.128-0.101-0.186c-0.039-0.059-0.084-0.113-0.134-0.162c-0.049-0.05-0.104-0.096-0.162-0.134"/>
	<path fill="#58595B" d="M56.023,2.588c0-0.631-0.512-1.144-1.143-1.144s-1.144,0.513-1.144,1.144S54.25,3.73,54.881,3.73
		S56.023,3.219,56.023,2.588"/>
	<path fill="none" stroke="#58595B" stroke-width="0.5" stroke-miterlimit="10" d="M24.373,6.293c0.55,0,1.087,0.057,1.605,0.162
		c0.52,0.106,1.02,0.264,1.496,0.465s0.93,0.447,1.354,0.734c0.424,0.286,0.818,0.612,1.18,0.973c0.36,0.36,0.686,0.756,0.973,1.18
		s0.533,0.877,0.734,1.354c0.202,0.477,0.357,0.978,0.465,1.496c0.106,0.518,0.162,1.055,0.162,1.606c0,0.44-0.045,0.868-0.13,1.284
		c-0.085,0.414-0.21,0.815-0.371,1.197c-0.161,0.381-0.358,0.743-0.588,1.082c-0.229,0.34-0.489,0.655-0.778,0.943
		c-0.289,0.289-0.604,0.549-0.943,0.779c-0.34,0.229-0.702,0.426-1.084,0.586c-0.381,0.162-0.781,0.287-1.196,0.373
		c-0.415,0.084-0.844,0.129-1.284,0.129c-0.352,0-0.695-0.035-1.027-0.104s-0.652-0.168-0.957-0.297s-0.596-0.287-0.867-0.471
		s-0.524-0.393-0.754-0.622c-0.231-0.231-0.44-0.483-0.623-0.755c-0.184-0.271-0.342-0.561-0.471-0.866s-0.229-0.626-0.297-0.958
		c-0.068-0.332-0.104-0.675-0.104-1.027c0-0.281,0.027-0.557,0.083-0.822c0.054-0.266,0.134-0.522,0.237-0.767
		c0.104-0.243,0.229-0.476,0.377-0.692c0.146-0.217,0.312-0.42,0.498-0.604c0.184-0.186,0.387-0.352,0.604-0.499
		c0.217-0.146,0.449-0.272,0.693-0.376s0.5-0.183,0.765-0.238c0.267-0.054,0.541-0.082,0.823-0.082c0.225,0,0.445,0.022,0.658,0.066
		c0.211,0.043,0.416,0.107,0.611,0.189c0.195,0.084,0.381,0.185,0.555,0.302c0.174,0.116,0.336,0.251,0.483,0.399
		c0.147,0.146,0.281,0.309,0.397,0.482c0.119,0.173,0.22,0.359,0.302,0.555c0.083,0.194,0.147,0.399,0.19,0.612
		c0.043,0.212,0.066,0.433,0.066,0.657c0,0.181-0.02,0.357-0.053,0.527c-0.035,0.17-0.086,0.334-0.153,0.489
		c-0.065,0.156-0.146,0.306-0.239,0.443c-0.095,0.139-0.201,0.269-0.32,0.387c-0.117,0.118-0.248,0.226-0.387,0.319
		c-0.138,0.094-0.287,0.174-0.442,0.24c-0.156,0.066-0.32,0.117-0.49,0.152c-0.17,0.034-0.347,0.053-0.526,0.053
		c-0.145,0-0.285-0.015-0.42-0.043c-0.137-0.027-0.269-0.068-0.394-0.121s-0.243-0.117-0.354-0.192s-0.215-0.161-0.31-0.255
		c-0.095-0.096-0.181-0.198-0.255-0.309c-0.075-0.111-0.139-0.23-0.192-0.355c-0.053-0.125-0.094-0.256-0.122-0.393
		c-0.027-0.136-0.041-0.276-0.041-0.42c0-0.117,0.01-0.229,0.033-0.338c0.021-0.109,0.055-0.214,0.098-0.314
		c0.041-0.1,0.094-0.194,0.153-0.283s0.128-0.171,0.204-0.247s0.158-0.144,0.247-0.204s0.185-0.111,0.284-0.154
		c0.1-0.041,0.205-0.074,0.314-0.097c0.108-0.022,0.221-0.034,0.336-0.034c0.092,0,0.182,0.01,0.27,0.027
		c0.087,0.018,0.171,0.044,0.251,0.078c0.08,0.033,0.155,0.074,0.228,0.123c0.07,0.048,0.137,0.103,0.197,0.162
		c0.061,0.062,0.115,0.127,0.163,0.199c0.048,0.07,0.09,0.146,0.124,0.227c0.033,0.08,0.061,0.164,0.077,0.251
		c0.018,0.087,0.028,0.177,0.028,0.271"/>
	<path fill="#58595B" d="M26.771,14.838c0-0.631-0.512-1.144-1.143-1.144s-1.143,0.513-1.143,1.144s0.512,1.143,1.143,1.143
		S26.771,15.469,26.771,14.838"/>
	<path fill="#58595B" d="M39.98,13.254c0-0.631-0.512-1.143-1.144-1.143c-0.631,0-1.143,0.512-1.143,1.143s0.512,1.144,1.143,1.144
		C39.469,14.397,39.98,13.885,39.98,13.254"/>
	<path fill="none" stroke="#58595B" stroke-width="0.5" stroke-miterlimit="10" d="M6.062,10.32
		c-0.166-0.393-0.37-0.768-0.606-1.117C5.219,8.854,4.95,8.527,4.652,8.229C4.355,7.933,4.029,7.662,3.68,7.426
		C3.329,7.19,2.955,6.986,2.562,6.82C2.168,6.653,1.756,6.524,1.327,6.437C0.899,6.35,0.455,6.303,0.002,6.303"/>
	<path fill="none" stroke="#58595B" stroke-width="0.5" stroke-miterlimit="10" d="M6.055,10.32C6.221,9.928,6.424,9.553,6.66,9.203
		c0.237-0.35,0.506-0.676,0.805-0.974c0.297-0.297,0.623-0.567,0.973-0.804C8.787,7.19,9.161,6.986,9.555,6.82
		c0.394-0.167,0.807-0.296,1.234-0.384c0.428-0.087,0.872-0.134,1.326-0.134"/>
	<path fill="none" stroke="#58595B" stroke-width="0.5" stroke-miterlimit="10" d="M49.67,13.379c-2,2.002-4.193,3.078-6.166,3.25
		c-1.957,0.172-4.785-0.144-6.205-1.688c-0.1-0.107-0.186-0.223-0.262-0.346c-0.074-0.123-0.138-0.252-0.188-0.385
		c-0.05-0.135-0.087-0.272-0.111-0.414c-0.023-0.142-0.033-0.287-0.031-0.432c0.004-0.145,0.022-0.291,0.057-0.436
		c0.033-0.145,0.081-0.289,0.145-0.428c0.051-0.113,0.112-0.218,0.183-0.313c0.069-0.097,0.147-0.185,0.233-0.263
		c0.086-0.08,0.178-0.148,0.276-0.209c0.099-0.06,0.201-0.109,0.308-0.15c0.107-0.04,0.219-0.07,0.332-0.09
		c0.113-0.019,0.229-0.026,0.344-0.023c0.117,0.003,0.233,0.018,0.35,0.044c0.116,0.027,0.23,0.065,0.344,0.116
		c0.09,0.041,0.172,0.09,0.25,0.146c0.076,0.056,0.146,0.119,0.209,0.187c0.063,0.069,0.119,0.144,0.168,0.222
		c0.047,0.077,0.088,0.16,0.119,0.246c0.032,0.085,0.057,0.174,0.071,0.266c0.017,0.09,0.022,0.183,0.021,0.274
		c-0.004,0.093-0.015,0.187-0.035,0.279c-0.022,0.093-0.053,0.185-0.094,0.274c-0.033,0.072-0.072,0.14-0.117,0.2
		c-0.045,0.062-0.095,0.118-0.149,0.169c-0.054,0.049-0.114,0.094-0.177,0.133s-0.129,0.07-0.197,0.097
		c-0.068,0.024-0.139,0.044-0.212,0.057c-0.072,0.013-0.146,0.017-0.22,0.015c-0.076-0.002-0.149-0.01-0.224-0.027
		c-0.073-0.018-0.147-0.042-0.22-0.074c-0.057-0.027-0.111-0.059-0.16-0.094s-0.094-0.076-0.135-0.119
		c-0.04-0.044-0.075-0.092-0.105-0.143c-0.031-0.049-0.058-0.103-0.078-0.157c-0.021-0.054-0.035-0.111-0.045-0.169
		c-0.011-0.059-0.015-0.117-0.013-0.178c0.001-0.059,0.009-0.119,0.022-0.178c0.014-0.06,0.033-0.117,0.06-0.176
		c0.021-0.046,0.046-0.089,0.075-0.128c0.027-0.039,0.061-0.075,0.095-0.108c0.035-0.031,0.073-0.06,0.113-0.084"/>
	<path fill="none" stroke="#58595B" stroke-width="0.5" stroke-miterlimit="10" d="M49.754,13.275c0,0-6.125,2.688-10.188-1.688
		c0,0-5.188-4.375-13.688-5.25"/>
</g>
</svg>
