<?xml version="1.0" encoding="utf-8"?>
<!-- Generator: Adobe Illustrator 16.0.5, SVG Export Plug-In . SVG Version: 6.00 Build 0)  -->
<!DOCTYPE svg PUBLIC "-//W3C//DTD SVG 1.1//EN" "http://www.w3.org/Graphics/SVG/1.1/DTD/svg11.dtd">
<svg version="1.1" id="Layer_1" xmlns="http://www.w3.org/2000/svg" xmlns:xlink="http://www.w3.org/1999/xlink" x="0px" y="0px"
	 width="67.68px" height="16.96px" viewBox="0 0 67.68 16.96" enable-background="new 0 0 67.68 16.96" xml:space="preserve">
<g>
	<defs>
		<rect id="SVGID_1_" x="-724.434" y="-556.671" width="1224" height="792"/>
	</defs>
	<clipPath id="SVGID_2_">
		<use xlink:href="#SVGID_1_"  overflow="visible"/>
	</clipPath>
	<g clip-path="url(#SVGID_2_)">
		<defs>
			<rect id="SVGID_11_" x="-724.434" y="-556.671" width="1224" height="792"/>
		</defs>
		<clipPath id="SVGID_4_">
			<use xlink:href="#SVGID_11_"  overflow="visible"/>
		</clipPath>
	</g>
	<g clip-path="url(#SVGID_2_)">
		<defs>
			<rect id="SVGID_13_" x="-724.434" y="-556.671" width="1224" height="792"/>
		</defs>
		<clipPath id="SVGID_6_">
			<use xlink:href="#SVGID_13_"  overflow="visible"/>
		</clipPath>
	</g>
	<g clip-path="url(#SVGID_2_)">
		<defs>
			<rect id="SVGID_15_" x="-724.434" y="-556.671" width="1224" height="792"/>
		</defs>
		<clipPath id="SVGID_8_">
			<use xlink:href="#SVGID_15_"  overflow="visible"/>
		</clipPath>
	</g>
	<g clip-path="url(#SVGID_2_)">
		<defs>
			<rect id="SVGID_17_" x="-724.434" y="-556.671" width="1224" height="792"/>
		</defs>
		<clipPath id="SVGID_10_">
			<use xlink:href="#SVGID_17_"  overflow="visible"/>
		</clipPath>
	</g>
	<g clip-path="url(#SVGID_2_)">
		<defs>
			<rect id="SVGID_19_" x="-724.434" y="-556.671" width="1224" height="792"/>
		</defs>
		<clipPath id="SVGID_12_">
			<use xlink:href="#SVGID_19_"  overflow="visible"/>
		</clipPath>
	</g>
	<g clip-path="url(#SVGID_2_)">
		<defs>
			<rect id="SVGID_21_" x="-724.434" y="-556.671" width="1224" height="792"/>
		</defs>
		<clipPath id="SVGID_14_">
			<use xlink:href="#SVGID_21_"  overflow="visible"/>
		</clipPath>
	</g>
	<g clip-path="url(#SVGID_2_)">
		<defs>
			<rect id="SVGID_23_" x="-724.434" y="-556.671" width="1224" height="792"/>
		</defs>
		<clipPath id="SVGID_16_">
			<use xlink:href="#SVGID_23_"  overflow="visible"/>
		</clipPath>
	</g>
	<g clip-path="url(#SVGID_2_)">
		<defs>
			<rect id="SVGID_25_" x="-724.434" y="-556.671" width="1224" height="792"/>
		</defs>
		<clipPath id="SVGID_18_">
			<use xlink:href="#SVGID_25_"  overflow="visible"/>
		</clipPath>
	</g>
	<g clip-path="url(#SVGID_2_)">
		<defs>
			<rect id="SVGID_27_" x="-724.434" y="-556.671" width="1224" height="792"/>
		</defs>
		<clipPath id="SVGID_20_">
			<use xlink:href="#SVGID_27_"  overflow="visible"/>
		</clipPath>
	</g>
	<g clip-path="url(#SVGID_2_)">
		<defs>
			<rect id="SVGID_29_" x="-724.434" y="-556.671" width="1224" height="792"/>
		</defs>
		<clipPath id="SVGID_22_">
			<use xlink:href="#SVGID_29_"  overflow="visible"/>
		</clipPath>
	</g>
	<g clip-path="url(#SVGID_2_)">
		<defs>
			<rect id="SVGID_31_" x="-724.434" y="-556.671" width="1224" height="792"/>
		</defs>
		<clipPath id="SVGID_24_">
			<use xlink:href="#SVGID_31_"  overflow="visible"/>
		</clipPath>
	</g>
	<g clip-path="url(#SVGID_2_)">
		<defs>
			<rect id="SVGID_33_" x="-724.434" y="-556.671" width="1224" height="792"/>
		</defs>
		<clipPath id="SVGID_26_">
			<use xlink:href="#SVGID_33_"  overflow="visible"/>
		</clipPath>
	</g>
	<g clip-path="url(#SVGID_2_)">
		<defs>
			<rect id="SVGID_35_" x="-724.434" y="-556.671" width="1224" height="792"/>
		</defs>
		<clipPath id="SVGID_28_">
			<use xlink:href="#SVGID_35_"  overflow="visible"/>
		</clipPath>
	</g>
	<g clip-path="url(#SVGID_2_)">
		<defs>
			<rect id="SVGID_37_" x="-724.434" y="-556.671" width="1224" height="792"/>
		</defs>
		<clipPath id="SVGID_30_">
			<use xlink:href="#SVGID_37_"  overflow="visible"/>
		</clipPath>
	</g>
	<g clip-path="url(#SVGID_2_)">
		<defs>
			<rect id="SVGID_39_" x="-724.434" y="-556.671" width="1224" height="792"/>
		</defs>
		<clipPath id="SVGID_32_">
			<use xlink:href="#SVGID_39_"  overflow="visible"/>
		</clipPath>
	</g>
	<g clip-path="url(#SVGID_2_)">
		<defs>
			<rect id="SVGID_41_" x="-724.434" y="-556.671" width="1224" height="792"/>
		</defs>
		<clipPath id="SVGID_34_">
			<use xlink:href="#SVGID_41_"  overflow="visible"/>
		</clipPath>
	</g>
	<g clip-path="url(#SVGID_2_)">
		<defs>
			<rect id="SVGID_43_" x="-724.434" y="-556.671" width="1224" height="792"/>
		</defs>
		<clipPath id="SVGID_36_">
			<use xlink:href="#SVGID_43_"  overflow="visible"/>
		</clipPath>
	</g>
	<g clip-path="url(#SVGID_2_)">
		<defs>
			<rect id="SVGID_45_" x="-724.434" y="-556.671" width="1224" height="792"/>
		</defs>
		<clipPath id="SVGID_38_">
			<use xlink:href="#SVGID_45_"  overflow="visible"/>
		</clipPath>
	</g>
	<g clip-path="url(#SVGID_2_)">
		<defs>
			<rect id="SVGID_47_" x="-724.434" y="-556.671" width="1224" height="792"/>
		</defs>
		<clipPath id="SVGID_40_">
			<use xlink:href="#SVGID_47_"  overflow="visible"/>
		</clipPath>
	</g>
	<g clip-path="url(#SVGID_2_)">
		<defs>
			<rect id="SVGID_49_" x="-724.434" y="-556.671" width="1224" height="792"/>
		</defs>
		<clipPath id="SVGID_42_">
			<use xlink:href="#SVGID_49_"  overflow="visible"/>
		</clipPath>
	</g>
	<g clip-path="url(#SVGID_2_)">
		<defs>
			<rect id="SVGID_51_" x="-724.434" y="-556.671" width="1224" height="792"/>
		</defs>
		<clipPath id="SVGID_44_">
			<use xlink:href="#SVGID_51_"  overflow="visible"/>
		</clipPath>
	</g>
	<g clip-path="url(#SVGID_2_)">
		<defs>
			<rect id="SVGID_53_" x="-724.434" y="-556.671" width="1224" height="792"/>
		</defs>
		<clipPath id="SVGID_46_">
			<use xlink:href="#SVGID_53_"  overflow="visible"/>
		</clipPath>
	</g>
	<g clip-path="url(#SVGID_2_)">
		<defs>
			<rect id="SVGID_55_" x="-724.434" y="-556.671" width="1224" height="792"/>
		</defs>
		<clipPath id="SVGID_48_">
			<use xlink:href="#SVGID_55_"  overflow="visible"/>
		</clipPath>
	</g>
	<g clip-path="url(#SVGID_2_)">
		<defs>
			<rect id="SVGID_57_" x="-724.434" y="-556.671" width="1224" height="792"/>
		</defs>
		<clipPath id="SVGID_50_">
			<use xlink:href="#SVGID_57_"  overflow="visible"/>
		</clipPath>
	</g>
	<g clip-path="url(#SVGID_2_)">
		<defs>
			<rect id="SVGID_59_" x="-724.434" y="-556.671" width="1224" height="792"/>
		</defs>
		<clipPath id="SVGID_52_">
			<use xlink:href="#SVGID_59_"  overflow="visible"/>
		</clipPath>
	</g>
	<g clip-path="url(#SVGID_2_)">
		<defs>
			<rect id="SVGID_61_" x="-724.434" y="-556.671" width="1224" height="792"/>
		</defs>
		<clipPath id="SVGID_54_">
			<use xlink:href="#SVGID_61_"  overflow="visible"/>
		</clipPath>
	</g>
	<g clip-path="url(#SVGID_2_)">
		<defs>
			<rect id="SVGID_63_" x="-724.434" y="-556.671" width="1224" height="792"/>
		</defs>
		<clipPath id="SVGID_56_">
			<use xlink:href="#SVGID_63_"  overflow="visible"/>
		</clipPath>
	</g>
	<g clip-path="url(#SVGID_2_)">
		<defs>
			<rect id="SVGID_65_" x="-724.434" y="-556.671" width="1224" height="792"/>
		</defs>
		<clipPath id="SVGID_58_">
			<use xlink:href="#SVGID_65_"  overflow="visible"/>
		</clipPath>
	</g>
	<g clip-path="url(#SVGID_2_)">
		<defs>
			<rect id="SVGID_67_" x="-724.434" y="-556.671" width="1224" height="792"/>
		</defs>
		<clipPath id="SVGID_60_">
			<use xlink:href="#SVGID_67_"  overflow="visible"/>
		</clipPath>
	</g>
	<g clip-path="url(#SVGID_2_)">
		<defs>
			<rect id="SVGID_69_" x="-724.434" y="-556.671" width="1224" height="792"/>
		</defs>
		<clipPath id="SVGID_62_">
			<use xlink:href="#SVGID_69_"  overflow="visible"/>
		</clipPath>
	</g>
	<g clip-path="url(#SVGID_2_)">
		<defs>
			<rect id="SVGID_71_" x="-724.434" y="-556.671" width="1224" height="792"/>
		</defs>
		<clipPath id="SVGID_64_">
			<use xlink:href="#SVGID_71_"  overflow="visible"/>
		</clipPath>
	</g>
	<g clip-path="url(#SVGID_2_)">
		<defs>
			<rect id="SVGID_73_" x="-724.434" y="-556.671" width="1224" height="792"/>
		</defs>
		<clipPath id="SVGID_66_">
			<use xlink:href="#SVGID_73_"  overflow="visible"/>
		</clipPath>
	</g>
</g>
<g>
	
		<rect x="32.098" y="12.421" transform="matrix(-0.7072 -0.707 0.707 -0.7072 47.7527 48.0838)" fill="none" stroke="#58595B" stroke-width="0.5" stroke-miterlimit="10" width="3.469" height="3.468"/>
	<line fill="none" stroke="#58595B" stroke-width="0.5" stroke-miterlimit="10" x1="24.973" y1="13.319" x2="0" y2="13.319"/>
	<path fill="none" stroke="#58595B" stroke-width="0.5" stroke-miterlimit="10" d="M24.693,13.283c0.5,0,0.987-0.052,1.459-0.147
		c0.471-0.097,0.926-0.239,1.358-0.422s0.845-0.407,1.229-0.668c0.385-0.26,0.744-0.556,1.072-0.884
		c0.327-0.327,0.624-0.687,0.885-1.071c0.26-0.385,0.483-0.797,0.668-1.229c0.183-0.434,0.324-0.889,0.42-1.359
		c0.098-0.472,0.147-0.96,0.147-1.459c0-0.4-0.04-0.791-0.117-1.168s-0.19-0.741-0.338-1.087c-0.146-0.348-0.325-0.676-0.534-0.984
		c-0.207-0.308-0.445-0.595-0.707-0.856c-0.262-0.263-0.549-0.499-0.856-0.708c-0.308-0.208-0.638-0.388-0.984-0.534
		s-0.71-0.26-1.088-0.337c-0.377-0.077-0.767-0.118-1.167-0.118c-0.32,0-0.632,0.033-0.934,0.094
		c-0.301,0.062-0.592,0.153-0.87,0.271c-0.277,0.117-0.54,0.261-0.787,0.428c-0.246,0.166-0.476,0.355-0.687,0.564
		c-0.209,0.21-0.398,0.44-0.564,0.687c-0.167,0.247-0.311,0.51-0.428,0.787s-0.209,0.568-0.271,0.87s-0.094,0.613-0.094,0.934
		c0,0.256,0.026,0.506,0.075,0.747c0.05,0.242,0.123,0.474,0.217,0.696c0.093,0.222,0.208,0.433,0.341,0.63
		c0.134,0.197,0.285,0.381,0.453,0.548c0.168,0.168,0.351,0.32,0.549,0.453"/>
	<path fill="none" stroke="#58595B" stroke-width="0.5" stroke-miterlimit="10" d="M15.086,13.329c0.231,0,0.457-0.023,0.674-0.068
		c0.219-0.045,0.429-0.11,0.629-0.195c0.201-0.085,0.391-0.188,0.568-0.309c0.178-0.12,0.344-0.257,0.495-0.408
		c0.151-0.152,0.289-0.316,0.409-0.495c0.12-0.178,0.224-0.369,0.308-0.568c0.085-0.2,0.151-0.41,0.195-0.628
		c0.045-0.219,0.067-0.443,0.067-0.675c0-0.185-0.018-0.365-0.053-0.54c-0.037-0.174-0.089-0.342-0.156-0.502
		c-0.068-0.161-0.151-0.312-0.248-0.455c-0.096-0.143-0.205-0.274-0.326-0.396s-0.254-0.231-0.396-0.327
		c-0.142-0.096-0.295-0.179-0.455-0.247c-0.16-0.067-0.328-0.12-0.502-0.156c-0.174-0.035-0.354-0.054-0.539-0.054
		c-0.148,0-0.293,0.015-0.432,0.043c-0.141,0.029-0.273,0.071-0.402,0.125c-0.128,0.054-0.25,0.12-0.363,0.197
		c-0.114,0.077-0.221,0.165-0.317,0.262s-0.185,0.203-0.263,0.317c-0.076,0.113-0.143,0.234-0.196,0.363s-0.097,0.263-0.125,0.402
		c-0.028,0.139-0.043,0.283-0.043,0.431c0,0.119,0.012,0.234,0.034,0.347c0.023,0.11,0.057,0.219,0.1,0.32
		c0.044,0.104,0.098,0.2,0.158,0.291c0.062,0.092,0.132,0.177,0.209,0.255c0.078,0.076,0.163,0.146,0.254,0.209
		c0.091,0.062,0.189,0.114,0.291,0.157c0.104,0.043,0.21,0.077,0.322,0.101c0.111,0.022,0.227,0.035,0.345,0.035
		c0.095,0,0.187-0.011,0.276-0.028c0.089-0.02,0.176-0.045,0.257-0.08c0.082-0.035,0.159-0.077,0.233-0.127
		c0.072-0.049,0.141-0.105,0.203-0.167c0.062-0.062,0.117-0.13,0.168-0.203c0.049-0.073,0.09-0.151,0.125-0.232
		c0.035-0.082,0.062-0.169,0.08-0.258s0.028-0.181,0.028-0.275c0-0.076-0.008-0.15-0.022-0.222c-0.015-0.07-0.037-0.14-0.064-0.206
		c-0.027-0.065-0.061-0.128-0.102-0.186c-0.039-0.059-0.084-0.113-0.134-0.162c-0.049-0.05-0.103-0.095-0.161-0.134"/>
	<path fill="#58595B" d="M16.936,9.644c0-0.631-0.512-1.144-1.144-1.144c-0.631,0-1.143,0.513-1.143,1.144s0.512,1.143,1.143,1.143
		C16.424,10.786,16.936,10.274,16.936,9.644"/>
	<path fill="#58595B" d="M21.417,13.323c6.291,0.029,6.171-6.913,6-6.918c0,0-3.995,6.823-9.088,6.823"/>
	<line fill="none" stroke="#58595B" stroke-width="0.5" stroke-miterlimit="10" x1="42.707" y1="13.319" x2="67.68" y2="13.319"/>
	<path fill="none" stroke="#58595B" stroke-width="0.5" stroke-miterlimit="10" d="M42.987,13.283c-0.5,0-0.987-0.052-1.459-0.147
		c-0.472-0.097-0.926-0.239-1.358-0.422c-0.434-0.183-0.846-0.407-1.23-0.668c-0.385-0.26-0.744-0.556-1.072-0.884
		c-0.326-0.327-0.623-0.687-0.884-1.071c-0.26-0.385-0.483-0.797-0.668-1.229c-0.183-0.434-0.325-0.889-0.421-1.359
		c-0.098-0.472-0.146-0.96-0.146-1.459c0-0.4,0.039-0.791,0.116-1.168s0.191-0.741,0.339-1.087c0.146-0.348,0.325-0.676,0.533-0.984
		c0.208-0.308,0.445-0.595,0.707-0.856c0.262-0.263,0.549-0.499,0.857-0.708c0.308-0.208,0.638-0.388,0.984-0.534
		c0.346-0.146,0.709-0.26,1.088-0.337C40.75,0.291,41.14,0.25,41.539,0.25c0.32,0,0.633,0.033,0.935,0.094
		c0.301,0.062,0.592,0.153,0.87,0.271c0.277,0.117,0.539,0.261,0.787,0.428c0.246,0.166,0.476,0.355,0.686,0.564
		c0.209,0.21,0.398,0.44,0.564,0.687c0.168,0.247,0.311,0.51,0.429,0.787c0.116,0.277,0.208,0.568,0.271,0.87
		c0.061,0.302,0.094,0.613,0.094,0.934c0,0.256-0.026,0.506-0.076,0.747c-0.049,0.242-0.122,0.474-0.217,0.696
		c-0.092,0.222-0.207,0.433-0.34,0.63c-0.135,0.197-0.285,0.381-0.453,0.548c-0.168,0.168-0.352,0.32-0.549,0.453"/>
	<path fill="none" stroke="#58595B" stroke-width="0.5" stroke-miterlimit="10" d="M52.594,13.329c-0.23,0-0.457-0.023-0.674-0.068
		c-0.219-0.045-0.428-0.11-0.629-0.195c-0.2-0.085-0.391-0.188-0.568-0.309c-0.178-0.12-0.344-0.257-0.494-0.408
		c-0.152-0.152-0.289-0.316-0.41-0.495c-0.119-0.178-0.224-0.369-0.308-0.568c-0.085-0.2-0.151-0.41-0.194-0.628
		c-0.045-0.219-0.068-0.443-0.068-0.675c0-0.185,0.018-0.365,0.054-0.54c0.036-0.174,0.088-0.342,0.156-0.502
		c0.067-0.161,0.151-0.312,0.247-0.455s0.205-0.274,0.326-0.396s0.254-0.231,0.396-0.327s0.295-0.179,0.455-0.247
		c0.16-0.067,0.328-0.12,0.502-0.156c0.174-0.035,0.355-0.054,0.54-0.054c0.147,0,0.292,0.015,0.431,0.043
		c0.141,0.029,0.274,0.071,0.402,0.125s0.25,0.12,0.364,0.197s0.22,0.165,0.317,0.262c0.096,0.097,0.185,0.203,0.262,0.317
		c0.076,0.113,0.143,0.234,0.197,0.363c0.053,0.129,0.096,0.263,0.125,0.402c0.027,0.139,0.043,0.283,0.043,0.431
		c0,0.119-0.013,0.234-0.035,0.347c-0.022,0.11-0.057,0.219-0.1,0.32c-0.044,0.104-0.097,0.2-0.158,0.291
		c-0.062,0.092-0.132,0.177-0.209,0.255c-0.078,0.076-0.162,0.146-0.254,0.209c-0.091,0.062-0.188,0.114-0.291,0.157
		s-0.21,0.077-0.322,0.101c-0.11,0.022-0.227,0.035-0.344,0.035c-0.096,0-0.188-0.011-0.277-0.028
		c-0.088-0.02-0.176-0.045-0.256-0.08c-0.082-0.035-0.16-0.077-0.233-0.127c-0.073-0.049-0.142-0.105-0.203-0.167
		c-0.062-0.062-0.118-0.13-0.168-0.203c-0.049-0.073-0.091-0.151-0.126-0.232c-0.035-0.082-0.061-0.169-0.08-0.258
		c-0.018-0.089-0.027-0.181-0.027-0.275c0-0.076,0.008-0.15,0.022-0.222c0.015-0.07,0.036-0.14,0.063-0.206
		c0.027-0.065,0.062-0.128,0.102-0.186c0.039-0.059,0.084-0.113,0.134-0.162c0.05-0.05,0.103-0.095,0.162-0.134"/>
	<path fill="#58595B" d="M50.745,9.644c0-0.631,0.512-1.144,1.144-1.144c0.631,0,1.143,0.513,1.143,1.144s-0.512,1.143-1.143,1.143
		C51.257,10.786,50.745,10.274,50.745,9.644"/>
	<path fill="#58595B" d="M46.263,13.323c-6.291,0.029-6.171-6.913-6-6.918c0,0,3.995,6.823,9.088,6.823"/>
	<line fill="none" stroke="#58595B" stroke-width="0.5" stroke-miterlimit="10" x1="42.693" y1="13.319" x2="67.666" y2="13.319"/>
</g>
</svg>
